<svg width="16" height="16" viewBox="0 0 16 16" xmlns="http://www.w3.org/2000/svg">
<path fill-rule="evenodd" clip-rule="evenodd" d="M3.55025 2.55025L14.4497 13.4497C14.645 13.645 14.645 13.9616 14.4497 14.1569L14.0962 14.5104C13.9009 14.7057 13.5843 14.7057 13.3891 14.5104L11.8787 13L9.41465 13C9.46992 13.1564 9.5 13.3247 9.5 13.5C9.5 14.3284 8.82843 15 8 15C7.17157 15 6.5 14.3284 6.5 13.5C6.5 13.3247 6.53007 13.1564 6.58534 13L2.0384 13C1.707 13 1.43835 12.7314 1.43835 12.4C1.43835 12.2787 1.4751 12.1603 1.54375 12.0603C2.02917 11.3534 2.51458 11 3 11C3.03038 10.7914 3.05991 10.5869 3.08884 10.3865C3.40573 8.19188 3.65106 6.49282 4.15943 5.28075L2.48959 3.61091C2.29433 3.41565 2.29433 3.09907 2.48959 2.90381L2.84314 2.55025C3.03841 2.35499 3.35499 2.35499 3.55025 2.55025ZM5.87662 3.37662C6.43443 3.12514 7.12717 3 8 3C11.831 3 12.1894 5.45337 12.9031 10.3392L12.9141 10.4141L11.1257 8.62569C10.5459 5.1112 10.0302 4.5 8 4.5C7.64543 4.5 7.33702 4.51808 7.0664 4.5664L5.87662 3.37662ZM5.32806 6.44938L10.3787 11.5H4.44301L4.48435 11.2161C4.50903 11.0466 4.57528 10.5882 4.6098 10.3494C4.62099 10.272 4.62885 10.2176 4.63087 10.2036C4.68629 9.8214 4.72807 9.5381 4.7686 9.27157C4.95416 8.05146 5.12401 7.13494 5.32806 6.44938ZM8 3C7.44771 3 7 2.55228 7 2C7 1.44772 7.44771 1 8 1C8.55228 1 9 1.44772 9 2C9 2.55228 8.55228 3 8 3Z"/>
</svg>
