<?xml version="1.0" encoding="UTF-8"?>
<svg fill="#000" width="16px" height="16px" viewBox="0 0 16 16" version="1.1" xmlns="http://www.w3.org/2000/svg" >
                    <path d="M3.55025253,2.55025253 L14.4497475,13.4497475 C14.6450096,13.6450096 14.6450096,13.9615921 14.4497475,14.1568542 L14.0961941,14.5104076 C13.9009319,14.7056698 13.5843494,14.7056698 13.3890873,14.5104076 L11.8786871,13.0000074 L9.41465286,13.0000162 C9.46992496,13.1564011 9.5,13.3246883 9.5,13.5 C9.5,14.3284271 8.82842712,15 8,15 C7.17157288,15 6.5,14.3284271 6.5,13.5 C6.5,13.3246921 6.53007375,13.1564083 6.58534358,13.0000262 L2.03839795,13.0000424 C1.70700367,13.0000424 1.43835553,12.7313943 1.43835553,12.4 C1.43835553,12.278727 1.47510224,12.1603002 1.54375234,12.0603286 C2.02916823,11.3534429 2.51458411,11 3,11 C3.36313857,8.50608055 3.60463339,6.60351255 4.15942859,5.28074893 L2.48959236,3.6109127 C2.29433021,3.41565056 2.29433021,3.09906807 2.48959236,2.90380592 L2.84314575,2.55025253 C3.0384079,2.35499039 3.35499039,2.35499039 3.55025253,2.55025253 Z M5.87661752,3.37661752 C6.43443256,3.12513953 7.12717356,3 8,3 C11.8505194,3 12.1929533,5.47845739 12.9140765,10.4140765 L11.1256916,8.62569161 C10.5458629,5.11119749 10.0302277,4.5 8,4.5 C7.64543192,4.5 7.33701745,4.51808443 7.06640464,4.56640464 L5.87661752,3.37661752 Z M10.3787135,11.5000338 L5.32806119,6.44938154 C5.12400766,7.13493821 4.95416281,8.05145656 4.76860253,9.27157157 C4.72806817,9.53809726 4.68629197,9.82140459 4.63087521,10.2036424 C4.62262049,10.2605794 4.51704191,10.991596 4.48434686,11.2161351 L4.44300849,11.5000338 L10.3787135,11.5000338 Z M8,3 C7.44771525,3 7,2.55228475 7,2 C7,1.44771525 7.44771525,1 8,1 C8.55228475,1 9,1.44771525 9,2 C9,2.55228475 8.55228475,3 8,3 Z"></path>
</svg>