<svg width="24" height="24" viewBox="0 0 24 24" xmlns="http://www.w3.org/2000/svg">
<path fill-rule="evenodd" clip-rule="evenodd" d="M14.2499 19.7499C14.2499 20.9925 13.2426 21.9999 11.9999 21.9999C10.7573 21.9999 9.74994 20.9925 9.74994 19.7499C9.74994 19.4869 9.79505 19.2345 9.87795 18.9999L3.05753 18.9999C2.56044 18.9999 2.15747 18.597 2.15747 18.0999C2.15747 17.918 2.21259 17.7403 2.31557 17.5904C3.04369 16.53 3.77181 15.9999 4.49994 15.9999C5.67322 7.94218 5.99994 3.99988 11.9999 3.99988C17.9999 3.99988 18.3213 8.01181 19.4999 15.9999C20.2281 15.9999 20.9562 16.53 21.6843 17.5904C21.9657 18.0001 21.8617 18.5604 21.4519 18.8418C21.3019 18.9448 21.1243 18.9999 20.9424 18.9999L14.1219 18.9999C14.2048 19.2345 14.2499 19.4869 14.2499 19.7499ZM17.274 16.8283C17.1539 16.0138 16.9672 14.2207 16.8417 13.4035C15.901 7.27646 15.2224 5.99988 11.9999 5.99988C8.757 5.99988 8.08798 7.25839 7.15284 13.4072C7.0298 14.2162 6.84398 16.0169 6.72646 16.8241L6.66445 16.9999H17.3362L17.274 16.8283ZM11.9999 3.99988C11.1715 3.99988 10.4999 3.32831 10.4999 2.49988C10.4999 1.67145 11.1715 0.999878 11.9999 0.999878C12.8284 0.999878 13.4999 1.67145 13.4999 2.49988C13.4999 3.32831 12.8284 3.99988 11.9999 3.99988Z"/>
</svg>
