<svg width="32" height="32" viewBox="0 0 32 32" xmlns="http://www.w3.org/2000/svg">
<path fill-rule="evenodd" clip-rule="evenodd" d="M17.9811 3C17.9811 4.10457 17.0941 5 15.9999 5C14.9057 5 14.0187 4.10457 14.0187 3C14.0187 1.89543 14.9057 1 15.9999 1C17.0941 1 17.9811 1.89543 17.9811 3ZM27.0165 22.9522C27.0321 22.9679 27.0472 22.9838 27.0617 23C27.7463 23.7628 27.2104 25 26.1648 25H6.20288C5.1573 25 4.62137 23.7628 5.30603 23C5.32053 22.9838 5.33558 22.9679 5.35118 22.9522L5.90241 22.3967C6.65012 21.6428 7.27048 21.015 7.27785 21.0003C7.34493 20.5352 7.40992 20.0802 7.47342 19.6356L7.47355 19.6347L7.47698 19.6107L7.55766 19.0464C8.90702 9.61875 9.69264 5 16.1838 5C22.6717 5 23.4537 9.69546 24.8068 19.0471L24.873 19.5053C24.9432 19.9914 25.0152 20.4896 25.0898 21C25.0972 21.0147 25.7176 21.6428 26.4653 22.3967L27.0165 22.9522ZM24.248 23H8.11967C8.29495 22.8226 8.44266 22.6727 8.54754 22.5655C8.60045 22.5114 8.64661 22.464 8.68096 22.4282C8.69646 22.412 8.71832 22.3891 8.73943 22.3662L8.74083 22.3647L8.7409 22.3646C8.74994 22.3548 8.77529 22.3272 8.8037 22.2935L8.80469 22.2923L8.80473 22.2923C8.81449 22.2807 8.86602 22.22 8.92223 22.1387L8.92345 22.137C8.93801 22.1164 9.05438 21.9516 9.14354 21.7208L9.14599 21.7146C9.16146 21.6758 9.22432 21.5179 9.25721 21.2855C9.32448 20.8191 9.38949 20.3654 9.45259 19.9239L9.45901 19.879C9.76069 17.7677 10.0225 15.9356 10.3167 14.3275C10.6754 12.3668 11.0582 10.8867 11.5463 9.77553C12.0217 8.69323 12.5518 8.06509 13.1623 7.67664C13.783 7.28177 14.6989 7 16.1838 7C17.6629 7 18.5757 7.2852 19.1956 7.6841C19.808 8.07818 20.3402 8.71541 20.8172 9.8069C21.3063 10.9259 21.689 12.4108 22.0482 14.3677C22.3372 15.9427 22.5952 17.7274 22.8909 19.7732C22.9617 20.2634 23.0348 20.7685 23.1109 21.2892C23.1439 21.5196 23.2063 21.676 23.2217 21.7146L23.2242 21.7208C23.3126 21.9498 23.4278 22.1137 23.4438 22.1364L23.4455 22.1387C23.5017 22.2201 23.5533 22.2809 23.563 22.2923L23.564 22.2935C23.5919 22.3265 23.6164 22.3533 23.6259 22.3636L23.6259 22.3637L23.6279 22.3658C23.649 22.3887 23.6712 22.412 23.6867 22.4282C23.7211 22.464 23.7672 22.5114 23.8202 22.5655C23.925 22.6727 24.0728 22.8226 24.248 23ZM13.1664 26.5C13.0586 26.8093 13 27.154 13 27.5C13 29.1569 14.3431 30.5 16 30.5C17.6569 30.5 19 29.1569 19 27.5C19 27.1546 18.9416 26.8088 18.8342 26.5H13.1664Z"/>
</svg>
