<svg width="16" height="16" viewBox="0 0 16 16" xmlns="http://www.w3.org/2000/svg">
<path fill-rule="evenodd" clip-rule="evenodd" d="M9.5 13.5C9.5 13.3247 9.46992 13.1564 9.41465 13L13.9616 13C14.0829 13 14.2013 12.9633 14.3013 12.8946C14.5745 12.707 14.6439 12.3335 14.4562 12.0603C13.9708 11.3534 13.4854 11 13 11C12.9668 10.775 12.9346 10.5547 12.9031 10.3391C12.1894 5.45337 11.831 3 8 3C4.1554 3 3.80482 5.42796 3.08886 10.3863C3.05992 10.5868 3.03039 10.7913 3 11C2.51458 11 2.02917 11.3534 1.54375 12.0603C1.4751 12.1603 1.43836 12.2787 1.43836 12.4C1.43836 12.7314 1.707 13 2.0384 13L6.58534 13C6.53007 13.1564 6.5 13.3247 6.5 13.5C6.5 14.3284 7.17157 15 8 15C8.82843 15 9.5 14.3284 9.5 13.5ZM11.3674 10.204C11.3589 10.146 11.4807 10.9794 11.5161 11.219L11.5575 11.5H4.44301L4.48435 11.2161C4.50904 11.0466 4.57528 10.5882 4.6098 10.3494C4.621 10.272 4.62885 10.2176 4.63088 10.2036C4.68629 9.8214 4.72807 9.5381 4.7686 9.27157C5.39203 5.17234 5.83807 4.5 8 4.5C10.1483 4.5 10.6007 5.18439 11.2279 9.26906C11.2687 9.53513 11.3106 9.81613 11.3674 10.204ZM8 3C7.44772 3 7 2.55228 7 2C7 1.44772 7.44771 1 8 1C8.55228 1 9 1.44772 9 2C9 2.55228 8.55228 3 8 3Z"/>
</svg>
