<?xml version="1.0" encoding="UTF-8"?>
<svg fill="#000" width="32px" height="32px" viewBox="0 0 32 32" version="1.1" xmlns="http://www.w3.org/2000/svg" >
            <path d="M18.8341764,26.5 C18.9416156,26.8088364 19,27.1545612 19,27.5 C19,29.1568542 17.6568542,30.5 16,30.5 C14.3431458,30.5 13,29.1568542 13,27.5 C13,27.1539766 13.0585822,26.8092812 13.1663695,26.5 L13.1663695,26.5 Z M16.1837981,5 C22.6716981,5 23.4536981,9.69546 24.8067981,19.0471 C24.8286981,19.1986 24.8507981,19.3513 24.8729981,19.5053 C24.9431981,19.9914 25.0151981,20.4896 25.0897981,21 L25.0897981,21 L25.0973684,21.0091594 C25.1706268,21.0892952 25.7615804,21.6871471 26.4652981,22.3967 C26.6439981,22.5769 26.8298981,22.7642 27.0164981,22.9522 C27.0320981,22.9679 27.0471981,22.9838 27.0616981,23 C27.7462981,23.7628 27.2103981,25 26.1647981,25 L26.1647981,25 L6.20287805,25 C5.15729805,25 4.62136805,23.7628 5.30602805,23 C5.32052805,22.9838 5.33557805,22.9679 5.35117805,22.9522 C5.53777805,22.7642 5.72372805,22.5769 5.90240805,22.3967 C6.65011805,21.6428 7.27047805,21.015 7.27784805,21.0003 L7.27784805,21.0003 L7.3788043,20.2973625 L7.3788043,20.2973625 L7.47697805,19.6107 C7.50412805,19.4207 7.53100805,19.2326 7.55765805,19.0464 C8.90701805,9.61875 9.69263805,5 16.1837981,5 Z M16.1837981,7 C14.6988981,7 13.7829981,7.28177 13.1622981,7.67664 C12.5517981,8.06509 12.0216981,8.69323 11.5462981,9.77553 C11.0581981,10.8867 10.6753981,12.3668 10.3166981,14.3275 C10.0225081,15.9356 9.76068805,17.7677 9.45900805,19.879 C9.41559472,20.1827333 9.37135916,20.4922889 9.32608213,20.8077852 L9.25720805,21.2855 C9.22431805,21.5179 9.16145805,21.6758 9.14598805,21.7146 C9.14494805,21.7172 9.14412805,21.7193 9.14353805,21.7208 C9.07975948,21.8859429 9.00208295,22.0172082 8.95770234,22.0860974 L8.92344805,22.137 L8.92344805,22.137 L8.92222805,22.1387 C8.86594805,22.2201 8.81435805,22.2809 8.80468805,22.2923 L8.80369805,22.2935 C8.77355805,22.3292 8.74726805,22.3577 8.73983805,22.3658 L8.73942805,22.3662 C8.71831805,22.3891 8.69645805,22.412 8.68095805,22.4282 C8.64660805,22.464 8.60044805,22.5114 8.54753805,22.5655 C8.44265805,22.6727 8.29494805,22.8226 8.11966805,23 L24.2479981,23 C24.0727981,22.8226 23.9249981,22.6727 23.8201981,22.5655 C23.7671981,22.5114 23.7210981,22.464 23.6866981,22.4282 C23.6711981,22.412 23.6493981,22.3891 23.6282981,22.3662 L23.6278981,22.3658 C23.6204981,22.3577 23.5941981,22.3292 23.5639981,22.2935 L23.5629981,22.2923 C23.5532981,22.2809 23.5016981,22.2201 23.4454981,22.1387 C23.4451981,22.1384 23.4447981,22.1378 23.4441981,22.137 C23.4299981,22.1168 23.3133981,21.952 23.2241981,21.7208 L23.2216981,21.7146 C23.2088647,21.6824333 23.1634619,21.5684611 23.1295869,21.3980306 L23.1108981,21.2892 C23.0347981,20.7685 22.9616981,20.2634 22.8908981,19.7732 C22.5951981,17.7274 22.3371981,15.9427 22.0481981,14.3677 C21.6889981,12.4108 21.3062981,10.9259 20.8171981,9.8069 C20.3401981,8.71541 19.8079981,8.07818 19.1955981,7.6841 C18.5756981,7.2852 17.6628981,7 16.1837981,7 Z M15.9999244,1 C17.0941105,1 17.9811236,1.8954305 17.9811236,3 C17.9811236,4.1045695 17.0941105,5 15.9999244,5 C14.9057383,5 14.0187253,4.1045695 14.0187253,3 C14.0187253,1.8954305 14.9057383,1 15.9999244,1 Z"></path>
</svg>