<svg width="16" height="16" viewBox="0 0 16 16" xmlns="http://www.w3.org/2000/svg">
<path d="M7 2C7 2.55228 7.44772 3 8 3C8.55228 3 9 2.55228 9 2C9 1.44772 8.55228 1 8 1C7.44772 1 7 1.44772 7 2Z"/>
<path d="M9.5 13.5C9.5 13.3247 9.46992 13.1564 9.41465 13L13.9616 13C14.0829 13 14.2013 12.9633 14.3013 12.8946C14.5745 12.707 14.6439 12.3335 14.4562 12.0603C13.9708 11.3534 13.4854 11 13 11C12.9668 10.775 12.9346 10.5547 12.9031 10.3391C12.1894 5.45337 11.831 3 8 3C4.1554 3 3.80482 5.42796 3.08886 10.3863C3.05992 10.5868 3.03039 10.7913 3 11C2.51458 11 2.02917 11.3534 1.54375 12.0603C1.4751 12.1603 1.43835 12.2787 1.43835 12.4C1.43835 12.7314 1.707 13 2.0384 13L6.58534 13C6.53007 13.1564 6.5 13.3247 6.5 13.5C6.5 14.3284 7.17157 15 8 15C8.82843 15 9.5 14.3284 9.5 13.5Z"/>
</svg>
