<?xml version="1.0" encoding="UTF-8"?>
<svg fill="#000" width="16px" height="16px" viewBox="0 0 16 16" version="1.1" xmlns="http://www.w3.org/2000/svg" >
            <path d="M8,3 C12,3 12.2142536,5.67462444 13,11 C13.485413,11 13.9708261,11.3534387 14.4562391,12.0603162 C14.6438618,12.3334777 14.5744793,12.7070098 14.301298,12.8946036 C14.2013274,12.9632534 14.0829015,13 13.9616294,13 L9.41465286,13.0000162 C9.46992496,13.1564011 9.5,13.3246883 9.5,13.5 C9.5,14.3284271 8.82842712,15 8,15 C7.17157288,15 6.5,14.3284271 6.5,13.5 C6.5,13.3246921 6.53007375,13.1564083 6.58534358,13.0000262 L2.03839795,13.0000424 C1.70700367,13.0000424 1.43835553,12.7313943 1.43835553,12.4 C1.43835553,12.278727 1.47510224,12.1603002 1.54375234,12.0603286 C2.02916823,11.3534429 2.51458411,11 3,11 C3.78218528,5.62820193 4,3 8,3 Z M8,4.5 C5.83806942,4.5 5.39203107,5.17234015 4.76860253,9.27157157 C4.72806817,9.53809726 4.68629197,9.82140459 4.63087521,10.2036424 C4.62262049,10.2605794 4.51704191,10.991596 4.48434686,11.2161351 L4.44300849,11.5000338 L11.5575353,11.5000338 L11.5160659,11.2189509 C11.4807259,10.9794353 11.3589119,10.1460142 11.3674129,10.2040171 C11.3105632,9.81612983 11.2687094,9.5351264 11.2278607,9.26906473 C10.6007369,5.18438749 10.1483498,4.5 8,4.5 Z M8,3 C7.44771525,3 7,2.55228475 7,2 C7,1.44771525 7.44771525,1 8,1 C8.55228475,1 9,1.44771525 9,2 C9,2.55228475 8.55228475,3 8,3 Z"></path>
</svg>