<?xml version="1.0" encoding="UTF-8"?>
<svg fill="#000" width="32px" height="32px" viewBox="0 0 32 32" version="1.1" xmlns="http://www.w3.org/2000/svg" >
            <path d="M10,22 L10,26 L6,26 L6,22 L10,22 Z M18,22 L18,26 L14,26 L14,22 L18,22 Z M26,22 L26,26 L22,26 L22,22 L26,22 Z M10,14 L10,18 L6,18 L6,14 L10,14 Z M18,14 L18,18 L14,18 L14,14 L18,14 Z M26,14 L26,18 L22,18 L22,14 L26,14 Z M10,6 L10,10 L6,10 L6,6 L10,6 Z M18,6 L18,10 L14,10 L14,6 L18,6 Z M26,6 L26,10 L22,10 L22,6 L26,6 Z"></path>
</svg>