<?xml version="1.0" encoding="UTF-8"?>
<svg fill="#000" width="16px" height="16px" viewBox="0 0 16 16" version="1.1" xmlns="http://www.w3.org/2000/svg" >
            <path d="M5.5,10.5 L5.5,13.5 L2.5,13.5 L2.5,10.5 L5.5,10.5 Z M9.5,10.5 L9.5,13.5 L6.5,13.5 L6.5,10.5 L9.5,10.5 Z M13.5,10.5 L13.5,13.5 L10.5,13.5 L10.5,10.5 L13.5,10.5 Z M5.5,6.5 L5.5,9.5 L2.5,9.5 L2.5,6.5 L5.5,6.5 Z M9.5,6.5 L9.5,9.5 L6.5,9.5 L6.5,6.5 L9.5,6.5 Z M13.5,6.5 L13.5,9.5 L10.5,9.5 L10.5,6.5 L13.5,6.5 Z M5.5,2.5 L5.5,5.5 L2.5,5.5 L2.5,2.5 L5.5,2.5 Z M9.5,2.5 L9.5,5.5 L6.5,5.5 L6.5,2.5 L9.5,2.5 Z M13.5,2.5 L13.5,5.5 L10.5,5.5 L10.5,2.5 L13.5,2.5 Z"></path>
</svg>