<?xml version="1.0" encoding="UTF-8"?>
<svg fill="#000" width="16px" height="16px" viewBox="0 0 16 16" version="1.1" xmlns="http://www.w3.org/2000/svg" >
    <!-- Generator: (null) (null) ((null)) - http://www.bohemiancoding.com/sketch -->
    <title>mc-calendar_16</title>
    <desc>Created with (null).</desc>
        <path d="M12,3 L12.5,3 C13.3284271,3 14,3.67157288 14,4.5 L14,13.5 C14,14.3284271 13.3284271,15 12.5,15 L2.5,15 C1.67157288,15 1,14.3284271 1,13.5 L1,4.5 C1,3.67157288 1.67157288,3 2.5,3 L3,3 L3,2.5 C3,1.67157288 3.67157288,1 4.5,1 C5.32842712,1 6,1.67157288 6,2.5 L6,3 L9,3 L9,2.5 C9,1.67157288 9.67157288,1 10.5,1 C11.3284271,1 12,1.67157288 12,2.5 L12,3 Z M2,6.99703014 L2,13.0029699 C2,13.5469637 2.44573523,14 2.9955775,14 L12.0044225,14 C12.555163,14 13,13.5536144 13,13.0029699 L13,6.99703014 C13,6.45303631 12.5542648,6 12.0044225,6 L2.9955775,6 C2.44483697,6 2,6.4463856 2,6.99703014 Z M4,2.49538898 L4,4.50461102 C4,4.7842474 4.22385763,5 4.5,5 C4.76806641,5 5,4.7782068 5,4.50461102 L5,2.49538898 C5,2.2157526 4.77614237,2 4.5,2 C4.23193359,2 4,2.2217932 4,2.49538898 Z M10,2.49538898 L10,4.50461102 C10,4.7842474 10.2238576,5 10.5,5 C10.7680664,5 11,4.7782068 11,4.50461102 L11,2.49538898 C11,2.2157526 10.7761424,2 10.5,2 C10.2319336,2 10,2.2217932 10,2.49538898 Z"></path>
</svg>