<svg width="16" height="16" viewBox="0 0 16 16" xmlns="http://www.w3.org/2000/svg">
<path fill-rule="evenodd" clip-rule="evenodd" d="M4.5 1C5.32843 1 6 1.67157 6 2.5V3H9V2.5C9 1.67157 9.67157 1 10.5 1C11.3284 1 12 1.67157 12 2.5V3H12.5C13.3284 3 14 3.67157 14 4.5V13.5C14 14.3284 13.3284 15 12.5 15H2.5C1.67157 15 1 14.3284 1 13.5V4.5C1 3.67157 1.67157 3 2.5 3H3V2.5C3 1.67157 3.67157 1 4.5 1ZM2 6.99703C2 6.44639 2.44484 6 2.99558 6H12.0044C12.5543 6 13 6.45304 13 6.99703V13.003C13 13.5536 12.5552 14 12.0044 14H2.99558C2.44574 14 2 13.547 2 13.003V6.99703ZM4.5 2C4.23193 2 4 2.22179 4 2.49539V4.50461C4 4.78425 4.22386 5 4.5 5C4.76807 5 5 4.77821 5 4.50461V2.49539C5 2.21575 4.77614 2 4.5 2ZM10.5 2C10.2319 2 10 2.22179 10 2.49539V4.50461C10 4.78425 10.2239 5 10.5 5C10.7681 5 11 4.77821 11 4.50461V2.49539C11 2.21575 10.7761 2 10.5 2Z"/>
</svg>
