<?xml version="1.0" encoding="UTF-8"?>
<svg fill="#000" width="16px" height="16px" viewBox="0 0 16 16" version="1.1" xmlns="http://www.w3.org/2000/svg" >
    <!-- Generator: (null) (null) ((null)) - http://www.bohemiancoding.com/sketch -->
    <title>mc-clock_16</title>
    <desc>Created with (null).</desc>
        <path d="M8,14 C4.6862915,14 2,11.3137085 2,8 C2,4.6862915 4.6862915,2 8,2 C11.3137085,2 14,4.6862915 14,8 C14,11.3137085 11.3137085,14 8,14 Z M8,12.5 C10.4852814,12.5 12.5,10.4852814 12.5,8 C12.5,5.51471863 10.4852814,3.5 8,3.5 C5.51471863,3.5 3.5,5.51471863 3.5,8 C3.5,10.4852814 5.51471863,12.5 8,12.5 Z M6,8 L8,8 L8,5 L9,5 L9,9 L6,9 L6,8 Z"></path>
</svg>