<svg width="16" height="16" viewBox="0 0 16 16" xmlns="http://www.w3.org/2000/svg">
<path fill-rule="evenodd" clip-rule="evenodd" d="M8 2C4.5 2 2 4.5 2 8C2 11.5 4.5 14 8 14C9 14 9 13.5533 9 13C9 12.4142 8.82843 12.1716 8.68629 11.9706C8.58579 11.8284 8.5 11.7071 8.5 11.5C8.5 10.9467 8.94667 10.5 9.5 10.5C13.0133 10.5 14 9.84 14 8C14 4.5 11.5 2 8 2ZM4 9C3.44667 9 3 8.55333 3 8C3 7.44667 3.44667 7 4 7C4.55333 7 5 7.44667 5 8C5 8.55333 4.55333 9 4 9ZM4.2 5.2C4.2 5.75333 4.64667 6.2 5.2 6.2C5.75333 6.2 6.2 5.75333 6.2 5.2C6.2 4.64667 5.75333 4.2 5.2 4.2C4.64667 4.2 4.2 4.64667 4.2 5.2ZM10.8 6.2C10.2467 6.2 9.8 5.75333 9.8 5.2C9.8 4.64667 10.2467 4.2 10.8 4.2C11.3533 4.2 11.8 4.64667 11.8 5.2C11.8 5.75333 11.3533 6.2 10.8 6.2ZM7 4C7 4.55333 7.44667 5 8 5C8.55333 5 9 4.55333 9 4C9 3.44667 8.55333 3 8 3C7.44667 3 7 3.44667 7 4Z"/>
</svg>
