<?xml version="1.0" encoding="UTF-8"?>
<svg fill="#000" width="16px" height="16px" viewBox="0 0 16 16" version="1.1" xmlns="http://www.w3.org/2000/svg" >
    <!-- Generator: (null) (null) ((null)) - http://www.bohemiancoding.com/sketch -->
    <title>mc-copy_16</title>
    <desc>Created with (null).</desc>
        <path d="M2.5,12 C1.67157288,12 1,11.3284271 1,10.5 L1,5.41421356 C1,5.14899707 1.10535684,4.89464316 1.29289322,4.70710678 L4.70710678,1.29289322 C4.89464316,1.10535684 5.14899707,1 5.41421356,1 L8.5,1 C9.32842712,1 10,1.67157288 10,2.5 L10,4 L13.5,4 C14.3284271,4 15,4.67157288 15,5.5 L15,13.5 C15,14.3284271 14.3284271,15 13.5,15 L7.5,15 C6.67157288,15 6,14.3284271 6,13.5 L6,12 L2.5,12 Z M2,6 L2,10 C2,10.5522847 2.44771525,11 3,11 L6,11 L6,8.41421356 C6,8.14899707 6.10535684,7.89464316 6.29289322,7.70710678 L9,5 L9,3 C9,2.44771525 8.55228475,2 8,2 L6,2 L6,5 C6,5.55228475 5.55228475,6 5,6 L2,6 Z M11,5 L11,8 C11,8.55228475 10.5522847,9 10,9 L7,9 L7,13 C7,13.5522847 7.44771525,14 8,14 L13,14 C13.5522847,14 14,13.5522847 14,13 L14,6 C14,5.44771525 13.5522847,5 13,5 L11,5 Z M2.5,5 L5,5 L5,2.5 L2.5,5 Z M7.5,8 L10,8 L10,5.5 L7.5,8 Z"></path>
</svg>