<?xml version="1.0" encoding="UTF-8"?>
<svg fill="#000" width="16px" height="16px" viewBox="0 0 16 16" version="1.1" xmlns="http://www.w3.org/2000/svg" >
            <path d="M2,6 L6,6 C6.55228,6 7,5.55228 7,5 L7,1 L10,1 C10.5523,1 11,1.44772 11,2 L11,4 L9.91421,4 C9.649,4 9.39464,4.10536 9.20711,4.29289 L5.29289,8.20711 C5.10536,8.39464 5,8.649 5,8.91421 L5,12 L3,12 C2.44772,12 2,11.5523 2,11 L2,6 Z M5,5 L2.24142,5 C2.15233,5 2.10771,4.89229 2.17071,4.82929 L5.82929,1.17071 C5.89229,1.10771 6,1.15233 6,1.24142 L6,4 C6,4.55228 5.55228,5 5,5 Z M6,10 L10,10 C10.5523,10 11,9.55228 11,9 L11,5 L13,5 C13.5523,5 14,5.44772 14,6 L14,14 C14,14.5523 13.5523,15 13,15 L7,15 C6.44772,15 6,14.5523 6,14 L6,10 Z M9,9 L6.24142,9 C6.15233,9 6.10771,8.89229 6.17071,8.82929 L9.82929,5.17071 C9.89229,5.10771 10,5.15233 10,5.24142 L10,8 C10,8.55228 9.55228,9 9,9 Z"></path>
</svg>