<svg width="16" height="16" viewBox="0 0 16 16" xmlns="http://www.w3.org/2000/svg">
<path d="M2 6H6C6.55228 6 7 5.55228 7 5V1H10C10.5523 1 11 1.44772 11 2V4H9.91421C9.649 4 9.39464 4.10536 9.20711 4.29289L5.29289 8.20711C5.10536 8.39464 5 8.649 5 8.91421V12H3C2.44772 12 2 11.5523 2 11V6ZM5 5H2.24142C2.15233 5 2.10771 4.89229 2.17071 4.82929L5.82929 1.17071C5.89229 1.10771 6 1.15233 6 1.24142V4C6 4.55228 5.55228 5 5 5ZM6 10H10C10.5523 10 11 9.55228 11 9V5H13C13.5523 5 14 5.44772 14 6V14C14 14.5523 13.5523 15 13 15H7C6.44772 15 6 14.5523 6 14V10ZM9 9H6.24142C6.15233 9 6.10771 8.89229 6.17071 8.82929L9.82929 5.17071C9.89229 5.10771 10 5.15233 10 5.24142V8C10 8.55228 9.55228 9 9 9Z"/>
</svg>
