<svg width="16" height="16" viewBox="0 0 16 16" xmlns="http://www.w3.org/2000/svg">
<path fill-rule="evenodd" clip-rule="evenodd" d="M1 10.5C1 11.3284 1.67157 12 2.5 12H6V13.5C6 14.3284 6.67157 15 7.5 15H13.5C14.3284 15 15 14.3284 15 13.5V5.5C15 4.67157 14.3284 4 13.5 4H10V2.5C10 1.67157 9.32843 1 8.5 1H5.41421C5.149 1 4.89464 1.10536 4.70711 1.29289L1.29289 4.70711C1.10536 4.89464 1 5.149 1 5.41421V10.5ZM2 6H5C5.55228 6 6 5.55228 6 5V2H8C8.55228 2 9 2.44772 9 3V5L6.29289 7.70711C6.10536 7.89464 6 8.149 6 8.41421V11H3C2.44772 11 2 10.5523 2 10V6ZM13 5H11V8C11 8.55228 10.5523 9 10 9H7V13C7 13.5523 7.44772 14 8 14H13C13.5523 14 14 13.5523 14 13V6C14 5.44772 13.5523 5 13 5ZM2.5 5L5 2.5V5H2.5ZM10 5.5L7.5 8H10V5.5Z"/>
</svg>
