<svg width="32" height="32" viewBox="0 0 32 32" xmlns="http://www.w3.org/2000/svg">
<path fill-rule="evenodd" clip-rule="evenodd" d="M30 16C30 19.1907 27.2729 21.8726 23.9231 22.0015L19 22V24H24C28.3301 23.8334 32 20.3566 32 16C32 11.541 28.4183 7.75816 24 7.75816C23.8455 7.75816 23.692 7.76258 23.5397 7.7713C21.9356 4.35932 18.4908 2 14.5 2C8.97715 2 4.5 6.51843 4.5 12.0922C4.5 12.163 4.64699 13.8259 4.64699 13.8259L3.61445 14.0097C1.52703 14.616 0 16.6983 0 19C0 21.6792 1.88653 23.8347 4.5 24C4.52228 24.0065 13 24 13 24V22C12.7956 21.9978 6.98468 21.9993 5.08555 21.9999C4.75597 21.9999 4.5442 22 4.5 22C2.93739 21.8671 2 20.5606 2 19C2 17.6184 2.89898 16.349 4.0853 15.9573L6.80046 15.4738C6.60015 13.1706 6.5 12.0434 6.5 12.0922C6.5 7.61891 10.0859 4 14.5 4C17.6177 4 20.4124 5.82007 21.7298 8.62222L22.3048 9.84528C23.3577 9.7872 23.9228 9.75816 24 9.75816C27.2657 9.75816 30 12.5971 30 16ZM15.0768 31.6866C15.2598 31.8731 15.5138 31.9429 15.7505 31.8947C15.9863 31.9424 16.2398 31.8735 16.4232 31.6866L20.6708 27.359C20.9623 27.0619 20.9633 26.5813 20.6683 26.2808C20.3754 25.9823 19.9033 25.9796 19.6101 26.2783L16.5 29.4471V16.8159C16.5 16.3952 16.1671 16.0541 15.75 16.0541C15.3358 16.0541 15 16.3987 15 16.8159V29.4471L11.8899 26.2783C11.5983 25.9812 11.1266 25.9803 10.8317 26.2808C10.5388 26.5792 10.5361 27.0603 10.8292 27.359L15.0768 31.6866Z"/>
</svg>
