<?xml version="1.0" encoding="UTF-8"?>
<svg fill="#000" width="32px" height="32px" viewBox="0 0 32 32" version="1.1" xmlns="http://www.w3.org/2000/svg" >
            <path d="M15.75,16.0541493 C16.1671014,16.0541493 16.5,16.3951752 16.5,16.8158521 L16.5,29.4470726 L19.6101088,26.2782825 C19.903279,25.9795808 20.375435,25.9823498 20.6683282,26.2807693 C20.9632634,26.5812694 20.9623142,27.0619091 20.670769,27.3589551 L16.4232467,31.6866193 C16.2398227,31.8735042 15.9863353,31.9423792 15.7505237,31.89467 C15.5138002,31.9428856 15.2597719,31.8730911 15.0767533,31.6866193 L10.829231,27.3589551 C10.5360609,27.0602534 10.5387786,26.5791889 10.8316719,26.2807693 C11.1266071,25.9802693 11.598346,25.9812364 11.8898912,26.2782825 L15,29.4470726 L15,16.8158521 C15,16.398684 15.3357865,16.0541493 15.75,16.0541493 Z M14.5,2 C18.4908296,2 21.9356433,4.35932292 23.5397117,7.77130375 C23.6920401,7.76258305 23.8455086,7.75816351 24,7.75816351 C28.418278,7.75816351 32,11.5409919 32,16 C32,20.356553 28.330116,23.8334416 24,24 L19,24 L19,22 L23.9231266,22.0014779 C27.2729239,21.8726276 30,19.1906517 30,16 C30,12.5970533 27.2656841,9.75816351 24,9.75816351 C23.922763,9.75816351 23.3576796,9.78720208 22.30475,9.84527923 L21.7297536,8.62221605 C20.4123872,5.82007303 17.6176766,4 14.5,4 C10.0858511,4 6.5,7.61890747 6.5,12.0921856 L6.50192293,12.103063 C6.5166654,12.2313112 6.61617709,13.3549005 6.80045798,15.4738308 L4.08530173,15.9573468 C2.89897519,16.3489978 2,17.6183918 2,19 C2,20.5606015 2.93739273,21.8671502 4.5,22 C4.79887439,22 12.7601513,21.9973604 13,22 L13,24 L11.6750082,24.0009166 C9.28960526,24.0024443 4.51671053,24.0048886 4.5,24 C1.8865342,23.8346927 0,21.6792316 0,19 C0,16.6982626 1.5270276,14.616037 3.6144509,14.009731 L4.64698558,13.8258568 C4.64698558,13.8258568 4.5,12.1630431 4.5,12.0921856 C4.5,6.51842538 8.9771525,2 14.5,2 Z"></path>
</svg>