<?xml version="1.0" encoding="UTF-8"?>
<svg fill="#000" width="16px" height="16px" viewBox="0 0 16 16" version="1.1" xmlns="http://www.w3.org/2000/svg" >
    <!-- Generator: (null) (null) ((null)) - http://www.bohemiancoding.com/sketch -->
    <title>mc-download_16</title>
    <desc>Created with (null).</desc>
        <path d="M2.75,12.4999864 L13.7500015,12.4999861 C13.8880727,12.4999861 14.0000015,12.6119149 14.0000015,12.7499861 L14,13.75 C13.9999999,13.8880711 13.8880711,13.9999997 13.75,13.9999997 L2.75,14 C2.61192881,14 2.5,13.8880712 2.5,13.75 L2.5,12.7499864 C2.5,12.6119152 2.61192881,12.4999864 2.75,12.4999864 Z M9.6842669,7.89125831 C9.94555561,7.63310354 10.369152,7.63306763 10.6344992,7.89523227 C10.8980093,8.1555818 10.8998563,8.575867 10.6385214,8.83406735 L8.64010587,10.8085136 C8.51012164,10.9369388 8.3399695,11.0014847 8.16911474,11.0016489 C7.9945018,11.0010553 7.82389988,10.9369584 7.69389576,10.8085136 L5.69548021,8.83406735 C5.4341915,8.57591258 5.43415516,8.15739691 5.69950242,7.89523227 C5.96301253,7.63488274 6.38839989,7.63305796 6.64973473,7.89125831 L7.5,8.60927748 L7.51713648,3.66831553 C7.51713648,3.29921505 7.82292822,3 8.18996068,3 C8.56542252,3 8.85046982,3.30384064 8.85046982,3.66831553 L8.83333333,8.60927748 L9.6842669,7.89125831 Z"></path>
</svg>