<svg width="16" height="16" viewBox="0 0 16 16" xmlns="http://www.w3.org/2000/svg">
<path fill-rule="evenodd" clip-rule="evenodd" d="M10.6345 7.89523C10.3692 7.63307 9.94556 7.6331 9.68427 7.89126L8.83333 8.60928L8.85047 3.66832C8.85047 3.30384 8.56542 3 8.18996 3C7.82293 3 7.51714 3.29922 7.51714 3.66832L7.5 8.60928L6.64973 7.89126C6.3884 7.63306 5.96301 7.63488 5.6995 7.89523C5.43416 8.1574 5.43419 8.57591 5.69548 8.83407L7.6939 10.8085C7.8239 10.937 7.9945 11.0011 8.16912 11.0016C8.33997 11.0015 8.51012 10.9369 8.64011 10.8085L10.6385 8.83407C10.8999 8.57587 10.898 8.15558 10.6345 7.89523ZM2.75 12.5C2.61193 12.5 2.5 12.6119 2.5 12.75V13.75C2.5 13.8881 2.61193 14 2.75 14H13.75C13.8881 14 14 13.8881 14 13.75V12.75C14 12.6119 13.8881 12.5 13.75 12.5H2.75Z"/>
</svg>
