<?xml version="1.0" encoding="UTF-8"?>
<svg fill="#000" width="16px" height="16px" viewBox="0 0 16 16" version="1.1" xmlns="http://www.w3.org/2000/svg" >
                    <path d="M7.5,14 C8.32842712,14 9,13.3284271 9,12.5 C9,11.6715729 8.32842712,11 7.5,11 C6.67157288,11 6,11.6715729 6,12.5 C6,13.3284271 6.67157288,14 7.5,14 Z M7.5,10 C6.67157288,10 6,9.32842712 6,8.5 C6,7.67157288 6.67157288,7 7.5,7 C8.32842712,7 9,7.67157288 9,8.5 C9,9.32842712 8.32842712,10 7.5,10 Z M7.5,6 C6.67157288,6 6,5.32842712 6,4.5 C6,3.67157288 6.67157288,3 7.5,3 C8.32842712,3 9,3.67157288 9,4.5 C9,5.32842712 8.32842712,6 7.5,6 Z"></path>
</svg>