<?xml version="1.0" encoding="UTF-8"?>
<svg fill="#000" width="16px" height="16px" viewBox="0 0 16 16" version="1.1" xmlns="http://www.w3.org/2000/svg" >
    <!-- Generator: (null) (null) ((null)) - http://www.bohemiancoding.com/sketch -->
    <title>mc-error_16</title>
    <desc>Created with (null).</desc>
        <path d="M8.70567586,2.27690927 L14.8715468,13.8231548 C15.0796726,14.2128925 14.9324471,14.6975566 14.5427095,14.9056824 C14.4267514,14.9676058 14.2973207,15 14.1658643,15 L1.83413447,15 C1.39230667,15 1.03413447,14.6418278 1.03413447,14.2 C1.03413447,14.0685439 1.06652855,13.9391133 1.12845171,13.8231554 L7.29431066,2.27690984 C7.50243618,1.88717202 7.98710019,1.73994616 8.37683801,1.94807169 C8.51659456,2.02270367 8.63104376,2.13715278 8.70567586,2.27690927 Z M6.75,6 L7,10 L9,10 L9.25,6 L6.75,6 Z M7,11 L7,13 L9,13 L9,11 L7,11 Z"></path>
</svg>