<svg width="16" height="16" viewBox="0 0 16 16" xmlns="http://www.w3.org/2000/svg">
<path fill-rule="evenodd" clip-rule="evenodd" d="M8 4L7 5H3V13H11V9L12 8V13C12 13.5523 11.5523 14 11 14H3C2.44772 14 2 13.5523 2 13V5C2 4.44772 2.44772 4 3 4H8ZM9.9375 2.00001H13.1875C13.6362 2.00001 14 2.36378 14 2.81251V6.06251C14.0027 6.51016 13.6421 6.87776 13.1875 6.87501C12.736 6.87229 12.3777 6.51024 12.375 6.06251V4.68127L8.39161 8.76405C8.07353 9.08213 7.55214 9.07647 7.23584 8.76016C6.91227 8.43659 6.92847 7.9291 7.24257 7.615L11.3188 3.62501H9.9375C9.48985 3.62231 9.12774 3.26712 9.125 2.81251C9.12228 2.36106 9.48977 1.99731 9.9375 2.00001Z"/>
</svg>
