<?xml version="1.0" encoding="UTF-8"?>
<svg fill="#000" width="16px" height="16px" viewBox="0 0 16 16" version="1.1" xmlns="http://www.w3.org/2000/svg" >
            <path d="M8,4 L7,5 L3,5 L3,13 L11,13 L11,9 L12,8 L12,13 C12,13.5523 11.5523,14 11,14 L3,14 C2.44772,14 2,13.5523 2,13 L2,5 C2,4.44772 2.44772,4 3,4 L8,4 Z M9.9375,1.99999507 L13.1875,1.99999507 C13.6362,1.99999507 14.0000151,2.36378 14.0000151,2.81251 L14.0000151,6.06251 C14.0027,6.51016 13.6421,6.87776 13.1875,6.87501 C12.736,6.87229 12.3777,6.51024 12.375,6.06251 L12.375,4.68127 L8.39161,8.76405 C8.07353,9.08213 7.55214,9.07647 7.23584,8.76016 C6.91227,8.43659 6.92847,7.9291 7.24257,7.615 L11.3188,3.62501 L9.9375,3.62501 C9.48985,3.62231 9.12774,3.26712 9.125,2.81251 C9.12228,2.36106 9.48977,1.99731 9.9375,1.99999507 Z"></path>
</svg>