<svg width="16" height="16" viewBox="0 0 16 16" xmlns="http://www.w3.org/2000/svg">
<path fill-rule="evenodd" clip-rule="evenodd" d="M3.55001 2.55001C3.35473 2.35499 3.03832 2.35507 2.84314 2.55025L2.48959 2.9038C2.29432 3.09907 2.29432 3.41565 2.48959 3.61091L3.50727 4.6286C2.67088 5.26584 1.86598 6.08553 1.09348 7.07957L0.378204 7.99998L1.09346 8.92041C3.16828 11.5904 5.4769 13.0025 8.00146 13C9.0794 12.9989 10.118 12.7407 11.1159 12.2373L12.3891 13.5104C12.5843 13.7057 12.9009 13.7057 13.0962 13.5104L13.4497 13.1569C13.6448 12.9618 13.645 12.6456 13.4503 12.4503C13.4501 12.4501 13.4499 12.4499 13.4497 12.4497L12.422 11.422L11.3483 10.3483L10.1213 9.12132L4.80194 3.80194L3.55025 2.55025C3.55017 2.55017 3.55009 2.55009 3.55001 2.55001ZM5.78933 3.37512L10.7076 8.29341C10.895 7.90178 11 7.46315 11 7C11 6.23572 10.7142 5.53819 10.2436 5.00846C11.4387 5.55883 12.5981 6.55601 13.7221 8C13.2008 8.66977 12.6718 9.24341 12.1351 9.72092L13.197 10.7828C13.783 10.2534 14.3526 9.63197 14.9058 8.92137L15.623 8.00002L14.9058 7.07865C12.8315 4.41367 10.5241 3.00235 8.00139 3C7.24447 2.9993 6.50695 3.12574 5.78933 3.37512ZM4.99999 7C4.99999 6.73126 5.03533 6.47077 5.10161 6.22293L4.57929 5.70062C3.79628 6.26682 3.02914 7.03328 2.27788 8C4.09262 10.3353 5.99999 11.502 7.99999 11.5C8.67141 11.4993 9.33238 11.3674 9.98292 11.1042L8.77706 9.89838C8.52922 9.96466 8.26873 10 7.99999 10C6.34314 10 4.99999 8.65685 4.99999 7Z"/>
</svg>
