<svg width="16" height="16" viewBox="0 0 16 16" xmlns="http://www.w3.org/2000/svg">
<path fill-rule="evenodd" clip-rule="evenodd" d="M1.09349 8.92041C3.16831 11.5904 5.47693 13.0025 8.00149 13C10.5242 12.9975 12.8315 11.5862 14.9058 8.92137L15.623 8.00002L14.9058 7.07866C12.8315 4.41367 10.5241 3.00236 8.00142 3C5.4769 2.99765 3.16832 4.40972 1.09351 7.07957L0.378235 7.99998L1.09349 8.92041ZM13.7221 8C11.9074 10.3314 10 11.498 8.00002 11.5C6.00002 11.502 4.09265 10.3353 2.27791 8C3.40311 6.5521 4.56393 5.55343 5.76035 5.00399C5.28743 5.53427 5.00002 6.23357 5.00002 7C5.00002 8.65685 6.34317 10 8.00002 10C9.65688 10 11 8.65685 11 7C11 6.23572 10.7142 5.53819 10.2437 5.00846C11.4387 5.55883 12.5982 6.55601 13.7221 8ZM6.00002 7C6.00002 5.89543 6.89545 5 8.00002 5V6C7.44774 6 7.00002 6.44772 7.00002 7H6.00002Z"/>
</svg>
