<svg width="16" height="16" viewBox="0 0 16 16" xmlns="http://www.w3.org/2000/svg">
<path fill-rule="evenodd" clip-rule="evenodd" d="M1.09347 8.92041C3.16829 11.5904 5.4769 13.0025 8.00147 13C10.5241 12.9975 12.8315 11.5862 14.9058 8.92137L15.623 8.00002L14.9058 7.07866C12.8315 4.41367 10.5241 3.00236 8.0014 3C5.47688 2.99765 3.16829 4.40972 1.09349 7.07957L0.378211 7.99998L1.09347 8.92041ZM13.7221 8C11.9074 10.3314 10 11.498 8 11.5C6 11.502 4.09263 10.3353 2.27789 8C3.40309 6.5521 4.5639 5.55343 5.76033 5.00399C5.28741 5.53427 5 6.23357 5 7C5 8.65685 6.34315 10 8 10C9.65685 10 11 8.65685 11 7C11 6.23572 10.7142 5.53819 10.2436 5.00846C11.4387 5.55883 12.5982 6.55601 13.7221 8ZM6 7C6 5.89543 6.89543 5 8 5V6C7.44772 6 7 6.44772 7 7H6Z"/>
</svg>
