<svg width="16" height="16" viewBox="0 0 16 16" xmlns="http://www.w3.org/2000/svg">
<path fill-rule="evenodd" clip-rule="evenodd" d="M2 14C0.895431 14 0 13.1046 0 12V4C0 2.89543 0.895431 2 2 2H5.43845C6.35618 2 7.15615 2.62459 7.37873 3.51493L7.5 4H12C13.1046 4 14 4.89543 14 6V7H13.2639C14.7507 7 15.7177 8.56462 15.0528 9.89443L13.2764 13.4472C13.107 13.786 12.7607 14 12.382 14H2ZM12.5 6.5V7H4.58032C4.22147 7 3.89012 7.19229 3.71208 7.50386L1.70987 11.0077C1.61261 11.1779 1.54345 11.3535 1.5 11.5302V4.5C1.5 3.94772 1.94772 3.5 2.5 3.5H4.71922C5.17809 3.5 5.57807 3.8123 5.68937 4.25746L5.81063 4.74254C5.92193 5.1877 6.32191 5.5 6.78078 5.5H11.5C12.0523 5.5 12.5 5.94772 12.5 6.5ZM3.45625 10.97C3.03997 11.636 3.51881 12.5 4.30425 12.5H11.382C11.7607 12.5 12.107 12.286 12.2764 11.9472L13.2764 9.94721C13.6088 9.28231 13.1253 8.5 12.382 8.5H5.55425C5.20946 8.5 4.88899 8.67762 4.70625 8.97L3.45625 10.97Z"/>
</svg>
