<svg width="16" height="16" viewBox="0 0 16 16" xmlns="http://www.w3.org/2000/svg">
<path d="M11.5 8C13.433 8 15 9.567 15 11.5C15 12.1101 14.8439 12.6837 14.5695 13.1831L16 14.6137V16H14.6137L13.1831 14.5695C12.6837 14.8439 12.1101 15 11.5 15C9.567 15 8 13.433 8 11.5C8 9.567 9.567 8 11.5 8ZM4.99408 1C6.10192 1 7.21495 1.85979 7.48336 2.93346L7.5 3H11.9967C13.1031 3 14 3.9001 14 5.00104V6H14.4917C15.6008 6 16.0985 6.80299 15.6077 7.78451L15.3468 8.30577C14.4297 7.20245 13.0469 6.5 11.5 6.5C10.3743 6.5 9.3355 6.872 8.49981 7.49978L5.99754 7.5C5.44631 7.5 4.76263 7.8798 4.46981 8.3483L3.03019 10.6517C2.73971 11.1165 2.94714 11.5 3.49871 11.5H6.499L6.50462 11.7169C6.52363 12.1623 6.60092 12.5926 6.72905 13.0005L1.99202 13L1.882 12.996L1.86222 12.9956L1.85811 12.9954L1.99202 13C1.91735 13 1.84364 12.9958 1.7711 12.9878C1.75656 12.9862 1.74284 12.9846 1.72925 12.9828L1.69765 12.9782C1.67668 12.975 1.65582 12.9716 1.63507 12.9678C1.61998 12.965 1.60578 12.9622 1.59173 12.9591C0.683577 12.7722 0 11.9603 0 10.9915V3.00853C0 1.89925 0.886555 1 2.00592 1H4.99408ZM4.49063 2.5H2.50937C1.95191 2.5 1.5 2.94546 1.5 3.49871V10.373L3.50148 6.8724C3.77681 6.39059 4.44488 6 5.0018 6H12.5V5.49217C12.5 4.94421 12.0532 4.5 11.4986 4.5H7.00138C6.44833 4.5 5.88903 4.05614 5.75586 3.52344L5.74414 3.47656C5.60931 2.93722 5.05665 2.5 4.49063 2.5ZM11.5 9.5C10.3954 9.5 9.5 10.3954 9.5 11.5C9.5 12.6046 10.3954 13.5 11.5 13.5C12.6046 13.5 13.5 12.6046 13.5 11.5C13.5 10.3954 12.6046 9.5 11.5 9.5Z"/>
</svg>
