<?xml version="1.0" encoding="UTF-8"?>
<svg fill="#000" width="16px" height="16px" viewBox="0 0 16 16" version="1.1" xmlns="http://www.w3.org/2000/svg" >
    <!-- Generator: (null) (null) ((null)) - http://www.bohemiancoding.com/sketch -->
    <title>mc-folder-opened_16</title>
    <desc>Created with (null).</desc>
        <path d="M1.800674,13.9908275 C1.73748357,13.9849035 1.67687202,13.9761582 1.61892109,13.964733 C0.6970898,13.7881622 0,12.9697869 0,11.9914698 L0,4.0085302 C0,2.8992496 0.886554837,2 2.00591905,2 L4.99408095,2 C6.10191945,2 7.21494675,2.85978699 7.48336411,3.93345642 L7.5,4 L11.9967477,4 C13.1031134,4 14,4.90009892 14,6.00104344 L14,7 L14.4916587,7 C15.600835,7 16.0985055,7.80298901 15.6077462,8.78450753 L13.4432774,13.1134452 C13.1984621,13.6030759 12.5525106,14 12.0014977,14 L9.00798298,14 L1.99201702,14 C1.92747304,14 1.86364602,13.9968956 1.800674,13.9908275 Z M12.5,7 L12.5,6.49216843 C12.5,5.94420894 12.0532287,5.5 11.4986199,5.5 L7.00138006,5.5 C6.44833313,5.5 5.88903379,5.05613518 5.7558589,4.52343559 L5.7441411,4.47656441 C5.60930569,3.93722278 5.05664682,3.5 4.4906311,3.5 L2.5093689,3.5 C1.95190985,3.5 1.5,3.9454627 1.5,4.49871095 L1.5,11.375 L3.50148493,7.87240137 C3.7768072,7.3905874 4.44488162,7 5.00179743,7 L12.5,7 Z M3.49871095,12.5 L11.001289,12.5 C11.5545373,12.5 12.1987251,12.1025499 12.4438648,11.6122704 L13.5561352,9.38772964 C13.8009205,8.89815903 13.553384,8.5 13.0024554,8.5 L5.99754465,8.5 C5.4463114,8.5 4.76262778,8.87979556 4.4698143,9.34829712 L3.0301857,11.6517029 C2.73971051,12.1164632 2.94713812,12.5 3.49871095,12.5 Z"></path>
</svg>