<svg width="16" height="16" viewBox="0 0 16 16" xmlns="http://www.w3.org/2000/svg">
<path fill-rule="evenodd" clip-rule="evenodd" d="M0 12C0 13.1046 0.89543 14 2 14H12C13.1046 14 14 13.1046 14 12V6C14 4.89543 13.1057 4 12.0011 4H7.5C7.33333 4 7.22222 3.77778 7.07407 3.48148C6.77778 2.88889 6.33333 2 5 2H1.99949C0.89492 2 0 2.89543 0 4V12ZM1.5 11.5C1.5 12.0523 1.94771 12.5 2.5 12.5H11.5C12.0523 12.5 12.5 12.0523 12.5 11.5V6.5C12.5 5.94772 12.0523 5.5 11.5 5.5H6.78078C6.32191 5.5 5.92193 5.1877 5.81063 4.74254L5.68937 4.25746C5.57807 3.8123 5.17809 3.5 4.71922 3.5H2.5C1.94772 3.5 1.5 3.94772 1.5 4.5V11.5Z"/>
</svg>
