<svg width="16" height="16" viewBox="0 0 16 16" xmlns="http://www.w3.org/2000/svg">
<g clip-path="url(#clip0_37_20)">
<path d="M11.5 9C13.433 9 15 10.567 15 12.5C15 13.1101 14.8439 13.6837 14.5695 14.1831L16.8766 16.4904L15.4904 17.8766L13.1831 15.5695C12.6837 15.8439 12.1101 16 11.5 16C9.567 16 8 14.433 8 12.5C8 10.567 9.567 9 11.5 9ZM4.99408 2C6.10192 2 7.21495 2.85979 7.48336 3.93346L7.5 4H11.9967C13.1031 4 14 4.9001 14 6.00104V7H14.4917C15.6008 7 16.0985 7.80299 15.6077 8.78451L15.3468 9.30577C14.4297 8.20245 13.0469 7.5 11.5 7.5C10.3743 7.5 9.3355 7.872 8.49981 8.49978L5.99754 8.5C5.44631 8.5 4.76263 8.8798 4.46981 9.3483L3.03019 11.6517C2.73971 12.1165 2.94714 12.5 3.49871 12.5H6.499L6.50462 12.7169C6.52363 13.1623 6.60092 13.5926 6.72905 14.0005L1.99202 14L1.882 13.996L1.86222 13.9956C1.86085 13.9956 1.85948 13.9955 1.85811 13.9954L1.99202 14C1.91735 14 1.84364 13.9958 1.7711 13.9878C1.75656 13.9862 1.74284 13.9846 1.72925 13.9828L1.69765 13.9782C1.67668 13.975 1.65582 13.9716 1.63507 13.9678C1.61998 13.965 1.60578 13.9622 1.59173 13.9591C0.683577 13.7722 0 12.9603 0 11.9915V4.00853C0 2.89925 0.886555 2 2.00592 2H4.99408ZM4.49063 3.5H2.50937C1.95191 3.5 1.5 3.94546 1.5 4.49871V11.373L3.50148 7.8724C3.77681 7.39059 4.44488 7 5.0018 7H12.5V6.49217C12.5 5.94421 12.0532 5.5 11.4986 5.5H7.00138C6.44833 5.5 5.88903 5.05614 5.75586 4.52344L5.74414 4.47656C5.60931 3.93722 5.05665 3.5 4.49063 3.5ZM11.5 10.5C10.3954 10.5 9.5 11.3954 9.5 12.5C9.5 13.6046 10.3954 14.5 11.5 14.5C12.6046 14.5 13.5 13.6046 13.5 12.5C13.5 11.3954 12.6046 10.5 11.5 10.5Z"/>
</g>
<defs>
<clipPath id="clip0_37_20">
<rect width="16" height="16" fill="white"/>
</clipPath>
</defs>
</svg>
