<?xml version="1.0" encoding="UTF-8"?>
<svg fill="#000" width="16px" height="16px" viewBox="0 0 16 16" version="1.1" xmlns="http://www.w3.org/2000/svg" >
    <!-- Generator: (null) (null) ((null)) - http://www.bohemiancoding.com/sketch -->
    <title>mc-folder-closed_16</title>
    <desc>Created with (null).</desc>
        <path d="M0,12 L0,4 C-1.3527075e-16,2.8954305 0.8954305,2 2,2 C3,2 4,2 5,2 C7,2 7,4 7.5,4 C9,4 10.5,4 12,4 C13.1045695,4 14,4.8954305 14,6 L14,12 C14,13.1045695 13.1045695,14 12,14 L2,14 C0.8954305,14 1.3527075e-16,13.1045695 0,12 Z M2.4955775,12.5 L11.5044225,12.5 C12.055163,12.5 12.5,12.0509732 12.5,11.4970707 L12.5,6.50292933 C12.5,5.93788135 12.0516669,5.5 11.4986199,5.5 L7.00138006,5.5 C6.44677132,5.5 5.89069431,5.06277722 5.7558589,4.52343559 L5.7441411,4.47656441 C5.61096621,3.94386482 5.04809015,3.5 4.4906311,3.5 L2.5093689,3.5 C1.94335318,3.5 1.5,3.94661595 1.5,4.49754465 L1.5,11.5024554 C1.5,12.0536886 1.94573523,12.5 2.4955775,12.5 Z"></path>
</svg>