<?xml version="1.0" encoding="UTF-8"?>
<svg fill="#000" width="16px" height="16px" viewBox="0 0 16 16" version="1.1" xmlns="http://www.w3.org/2000/svg" >
                    <path d="M10.5,7 C12.4329966,7 14,8.56700338 14,10.5 C14,11.1100766 13.8439095,11.6836963 13.5694863,12.1831013 L15.876567,14.490382 L14.490382,15.876567 L12.1831013,13.5694863 C11.6836963,13.8439095 11.1100766,14 10.5,14 C8.56700338,14 7,12.4329966 7,10.5 C7,8.56700338 8.56700338,7 10.5,7 Z M6,1 C8,1 8,3 8.5,3 L13,3 C14.1045695,3 15,3.8954305 15,5 L15.0012675,8.32054838 C14.6519996,7.60053026 14.1350614,6.97694366 13.5011995,6.50053506 L13.5,5.50292933 C13.5,4.97824192 13.113427,4.56320329 12.615402,4.50658903 L12.4986199,4.5 L8.00138006,4.5 C7.48638623,4.5 6.97012639,4.12300689 6.79104573,3.63732363 L6.7558589,3.52343559 L6.7441411,3.47656441 C6.6204787,2.98191479 6.12630866,2.5638625 5.61001096,2.50666447 L5.4906311,2.5 L3.5093689,2.5 C2.98378287,2.5 2.563962,2.88509232 2.50666915,3.38120987 L2.5,3.49754465 L2.5,10.5024554 C2.5,11.0143148 2.88433293,11.4357059 3.37947213,11.4932931 L3.4955775,11.5 L5.60005628,11.500188 C5.70891672,12.0363685 5.90357738,12.54139 6.16908276,13.0002969 L3,13 C1.8954305,13 1,12.1045695 1,11 L1,3 C1,1.8954305 1.8954305,1 3,1 L6,1 Z M10.5,8.5 C9.3954305,8.5 8.5,9.3954305 8.5,10.5 C8.5,11.6045695 9.3954305,12.5 10.5,12.5 C11.6045695,12.5 12.5,11.6045695 12.5,10.5 C12.5,9.3954305 11.6045695,8.5 10.5,8.5 Z"></path>
</svg>