<svg width="16" height="16" viewBox="0 0 16 16" xmlns="http://www.w3.org/2000/svg">
<path d="M10.5 7C12.433 7 14 8.567 14 10.5C14 11.1101 13.8439 11.6837 13.5695 12.1831L15.8766 14.4904L14.4904 15.8766L12.1831 13.5695C11.6837 13.8439 11.1101 14 10.5 14C8.567 14 7 12.433 7 10.5C7 8.567 8.567 7 10.5 7ZM6 1C8 1 8 3 8.5 3H13C14.1046 3 15 3.89543 15 5L15.0013 8.32055C14.652 7.60053 14.1351 6.97694 13.5012 6.50054L13.5 5.50293C13.5 4.97824 13.1134 4.5632 12.6154 4.50659L12.4986 4.5H8.00138C7.48639 4.5 6.97013 4.12301 6.79105 3.63732L6.75586 3.52344L6.74414 3.47656C6.62048 2.98191 6.12631 2.56386 5.61001 2.50666L5.49063 2.5H3.50937C2.98378 2.5 2.56396 2.88509 2.50667 3.38121L2.5 3.49754V10.5025C2.5 11.0143 2.88433 11.4357 3.37947 11.4933L3.49558 11.5L5.60006 11.5002C5.70892 12.0364 5.90358 12.5414 6.16908 13.0003L3 13C1.89543 13 1 12.1046 1 11V3C1 1.89543 1.89543 1 3 1H6ZM10.5 8.5C9.39543 8.5 8.5 9.39543 8.5 10.5C8.5 11.6046 9.39543 12.5 10.5 12.5C11.6046 12.5 12.5 11.6046 12.5 10.5C12.5 9.39543 11.6046 8.5 10.5 8.5Z"/>
</svg>
