<svg width="24" height="24" viewBox="0 0 24 24" xmlns="http://www.w3.org/2000/svg">
<path d="M2 21C0.895431 21 0 20.1046 0 19C0 14.6667 0 10.3333 0 6C0 4.89543 0.89543 4 2 4H9C10.1046 4 11 4.89543 11 6V7H18C19.1046 7 20 7.89543 20 9V11H22.382C22.9342 11 23.382 11.4477 23.382 12C23.382 12.1552 23.3458 12.3084 23.2764 12.4472L19.2764 20.4472C19.107 20.786 18.7607 21 18.382 21H2ZM6.2 13.0039C5.1375 15.0026 4.06252 17.0013 3 19C7.93333 19 12.8667 19 17.8 19L21 13C16.0625 13 11.1375 13.0039 6.2 13.0039ZM18 9.00673L10.9985 9.00149C9.89452 9.00067 9 8.10548 9 7.00149V6H2V16.998L4.72361 11.5528C4.893 11.214 5.23926 11 5.61803 11H18V9.00673Z"/>
</svg>
