<?xml version="1.0" encoding="UTF-8"?>
<svg fill="#000" width="16px" height="16px" viewBox="0 0 16 16" version="1.1" xmlns="http://www.w3.org/2000/svg" >
                    <path d="M6,2 C8,2 8,4 8.5,4 L13,4 L13,4 C14.1045695,4 15,4.8954305 15,6 L15,12 C15,13.1045695 14.1045695,14 13,14 L3,14 C1.8954305,14 1,13.1045695 1,12 L1,4 C1,2.8954305 1.8954305,2 3,2 L6,2 L6,2 Z M5.4906311,3.5 L3.5093689,3.5 C2.94335318,3.5 2.5,3.94661595 2.5,4.49754465 L2.5,4.49754465 L2.5,11.5024554 C2.5,12.0536886 2.94573523,12.5 3.4955775,12.5 L3.4955775,12.5 L12.5044225,12.5 C13.055163,12.5 13.5,12.0509732 13.5,11.4970707 L13.5,11.4970707 L13.5,6.50292933 C13.5,5.93788135 13.0516669,5.5 12.4986199,5.5 L12.4986199,5.5 L8.00138006,5.5 C7.44677132,5.5 6.89069431,5.06277722 6.7558589,4.52343559 L6.7558589,4.52343559 L6.7441411,4.47656441 C6.61096621,3.94386482 6.04809015,3.5 5.4906311,3.5 L5.4906311,3.5 Z"></path>
</svg>