<?xml version="1.0" encoding="UTF-8"?>
<svg fill="#000" width="16px" height="16px" viewBox="0 0 16 16" version="1.1" xmlns="http://www.w3.org/2000/svg" >
                    <path d="M11.5,9 C13.4329966,9 15,10.5670034 15,12.5 C15,13.1100766 14.8439095,13.6836963 14.5694863,14.1831013 L16.876567,16.490382 L15.490382,17.876567 L13.1831013,15.5694863 C12.6836963,15.8439095 12.1100766,16 11.5,16 C9.56700338,16 8,14.4329966 8,12.5 C8,10.5670034 9.56700338,9 11.5,9 Z M4.99408095,2 C6.10191945,2 7.21494675,2.85978699 7.48336411,3.93345642 L7.5,4 L11.9967477,4 C13.1031134,4 14,4.90009892 14,6.00104344 L14,7 L14.4916587,7 C15.600835,7 16.0985055,7.80298901 15.6077462,8.78450753 L15.3468439,9.30577303 C14.4296903,8.20245464 13.0468787,7.5 11.5,7.5 C10.3743068,7.5 9.33549949,7.87200249 8.49980567,8.49977979 L5.99754465,8.5 C5.4463114,8.5 4.76262778,8.87979556 4.4698143,9.34829712 L4.4698143,9.34829712 L3.0301857,11.6517029 C2.73971051,12.1164632 2.94713812,12.5 3.49871095,12.5 L3.49871095,12.5 L6.499,12.5 L6.50461951,12.7168896 C6.52363009,13.1623137 6.60091549,13.5926473 6.72904576,14.0004604 L1.99201702,14 L1.882,13.996 L1.86221742,13.9956491 C1.86084615,13.9955623 1.85947602,13.9954743 1.85810704,13.995385 L1.99201702,14 C1.91734858,14 1.84363968,13.9958453 1.77110401,13.9877538 C1.75656198,13.9862375 1.74284125,13.9845833 1.72924924,13.9827927 L1.69765134,13.9781615 C1.67668093,13.9750213 1.65581705,13.9715507 1.63506503,13.9677553 C1.61998321,13.9650067 1.60577688,13.962151 1.59173223,13.9591345 C0.683577158,13.7722057 0,12.9602585 0,11.9914698 L0,4.0085302 C0,2.8992496 0.886554837,2 2.00591905,2 L4.99408095,2 Z M4.4906311,3.5 L2.5093689,3.5 C1.95190985,3.5 1.5,3.9454627 1.5,4.49871095 L1.5,11.373 L3.50148493,7.87240137 C3.7768072,7.3905874 4.44488162,7 5.00179743,7 L12.5,7 L12.5,6.49216843 C12.5,5.94420894 12.0532287,5.5 11.4986199,5.5 L7.00138006,5.5 C6.44833313,5.5 5.88903379,5.05613518 5.7558589,4.52343559 L5.7441411,4.47656441 C5.60930569,3.93722278 5.05664682,3.5 4.4906311,3.5 Z M11.5,10.5 C10.3954305,10.5 9.5,11.3954305 9.5,12.5 C9.5,13.6045695 10.3954305,14.5 11.5,14.5 C12.6045695,14.5 13.5,13.6045695 13.5,12.5 C13.5,11.3954305 12.6045695,10.5 11.5,10.5 Z"></path>
</svg>