<?xml version="1.0" encoding="UTF-8"?>
<svg fill="#000" width="16px" height="16px" viewBox="0 0 16 16" version="1.1" xmlns="http://www.w3.org/2000/svg" >
            <path d="M8.49531555,2 C8.77404508,2 9,2.21505737 9,2.49047852 L9.00095434,3.61172487 C9.50259304,3.72566819 9.97238684,3.92341977 10.3948346,4.18947844 L11.1887132,3.39707322 C11.380257,3.20552944 11.6868795,3.20159816 11.8923997,3.40711833 L12.5928817,4.1076003 C12.7899732,4.30469184 12.7976789,4.61653462 12.6029268,4.81128678 L11.8105216,5.60516541 C12.0767564,6.02789292 12.2745937,6.49802921 12.3885014,7.00004231 L13.5095215,7 C13.7804053,7 14,7.21403503 14,7.50468445 L14,8.49531555 C14,8.77404508 13.7849426,9 13.5095215,9 L12.3882751,9.00095434 C12.2743318,9.50259304 12.0765802,9.97238684 11.8105216,10.3948346 L12.6029268,11.1887132 C12.7944706,11.380257 12.7984018,11.6868795 12.5928817,11.8923997 L11.8923997,12.5928817 C11.6953082,12.7899732 11.3834654,12.7976789 11.1887132,12.6029268 L10.3948346,11.8105216 C9.97238684,12.0765802 9.50259304,12.2743318 9.00095434,12.3882751 L9,13.5095215 C9,13.7804053 8.78596497,14 8.49531555,14 L7.50468445,14 C7.22595492,14 7,13.7849426 7,13.5095215 L7.00004231,12.3885014 C6.49802921,12.2745937 6.02789292,12.0767564 5.60516541,11.8105216 L4.81128678,12.6029268 C4.619743,12.7944706 4.31312047,12.7984018 4.1076003,12.5928817 L3.40711833,11.8923997 C3.21002679,11.6953082 3.20232106,11.3834654 3.39707322,11.1887132 L4.18947844,10.3948346 C3.92341977,9.97238684 3.72566819,9.50259304 3.61172487,9.00095434 L2.49047852,9 C2.21959471,9 2,8.78596497 2,8.49531555 L2,7.50468445 C2,7.22595492 2.21505737,7 2.49047852,7 L3.61149861,7.00004231 C3.72540631,6.49802921 3.92324357,6.02789292 4.18947844,5.60516541 L3.39707322,4.81128678 C3.20552944,4.619743 3.20159816,4.31312047 3.40711833,4.1076003 L4.1076003,3.40711833 C4.30469184,3.21002679 4.61653462,3.20232106 4.81128678,3.39707322 L5.60516541,4.18947844 C6.02789292,3.92324357 6.49802921,3.72540631 7.00004231,3.61149861 L7,2.49047852 C7,2.21959471 7.21403503,2 7.50468445,2 L8.49531555,2 Z M8,5.5 C6.61928813,5.5 5.5,6.61928813 5.5,8 C5.5,9.38071187 6.61928813,10.5 8,10.5 C9.38071187,10.5 10.5,9.38071187 10.5,8 C10.5,6.61928813 9.38071187,5.5 8,5.5 Z"></path>
</svg>