<?xml version="1.0" encoding="UTF-8"?>
<svg fill="#000" width="16px" height="16px" viewBox="0 0 16 16" version="1.1" xmlns="http://www.w3.org/2000/svg" >
    <!-- Generator: (null) (null) ((null)) - http://www.bohemiancoding.com/sketch -->
    <title>mc-gear_16</title>
    <desc>Created with (null).</desc>
        <path d="M5.60426146,4.1900479 C6.02721079,3.92353315 6.49764493,3.72549863 7,3.61150821 L7,2.49047852 C7,2.21959471 7.21403503,2 7.50468445,2 L8.49531555,2 C8.77404508,2 9,2.21505737 9,2.49047852 L9,3.61150821 C9.50235507,3.72549863 9.97278921,3.92353315 10.3957385,4.1900479 L11.1887132,3.39707322 C11.380257,3.20552944 11.6868795,3.20159816 11.8923997,3.40711833 L12.5928817,4.1076003 C12.7899732,4.30469184 12.7976789,4.61653462 12.6029268,4.81128678 L11.8099521,5.60426146 C12.0764668,6.02721079 12.2745014,6.49764493 12.3884918,7 L13.5095215,7 C13.7804053,7 14,7.21403503 14,7.50468445 L14,8.49531555 C14,8.77404508 13.7849426,9 13.5095215,9 L12.3884918,9 C12.2745014,9.50235507 12.0764668,9.97278921 11.8099521,10.3957385 L12.6029268,11.1887132 C12.7944706,11.380257 12.7984018,11.6868795 12.5928817,11.8923997 L11.8923997,12.5928817 C11.6953082,12.7899732 11.3834654,12.7976789 11.1887132,12.6029268 L10.3957385,11.8099521 C9.97278921,12.0764668 9.50235507,12.2745014 9,12.3884918 L9,13.5095215 C9,13.7804053 8.78596497,14 8.49531555,14 L7.50468445,14 C7.22595492,14 7,13.7849426 7,13.5095215 L7,12.3884918 C6.49764493,12.2745014 6.02721079,12.0764668 5.60426146,11.8099521 L4.81128678,12.6029268 C4.619743,12.7944706 4.31312047,12.7984018 4.1076003,12.5928817 L3.40711833,11.8923997 C3.21002679,11.6953082 3.20232106,11.3834654 3.39707322,11.1887132 L4.1900479,10.3957385 C3.92353315,9.97278921 3.72549863,9.50235507 3.61150821,9 L2.49047852,9 C2.21959471,9 2,8.78596497 2,8.49531555 L2,7.50468445 C2,7.22595492 2.21505737,7 2.49047852,7 L3.61150821,7 C3.72549863,6.49764493 3.92353315,6.02721079 4.1900479,5.60426146 L3.39707322,4.81128678 C3.20552944,4.619743 3.20159816,4.31312047 3.40711833,4.1076003 L4.1076003,3.40711833 C4.30469184,3.21002679 4.61653462,3.20232106 4.81128678,3.39707322 L5.60426146,4.1900479 Z M8,10.5 C9.38071187,10.5 10.5,9.38071187 10.5,8 C10.5,6.61928813 9.38071187,5.5 8,5.5 C6.61928813,5.5 5.5,6.61928813 5.5,8 C5.5,9.38071187 6.61928813,10.5 8,10.5 Z"></path>
</svg>