<svg width="16" height="16" viewBox="0 0 16 16" xmlns="http://www.w3.org/2000/svg">
<path fill-rule="evenodd" clip-rule="evenodd" d="M7.50468 2C7.21404 2 7 2.21959 7 2.49048V3.61151C6.49764 3.7255 6.02721 3.92353 5.60426 4.19005L4.81129 3.39707C4.61653 3.20232 4.30469 3.21003 4.1076 3.40712L3.40712 4.1076C3.2016 4.31312 3.20553 4.61974 3.39707 4.81129L4.19005 5.60426C3.92353 6.02721 3.7255 6.49764 3.61151 7H2.49048C2.21506 7 2 7.22596 2 7.50468V8.49532C2 8.78596 2.21959 9 2.49048 9H3.61151C3.7255 9.50236 3.92353 9.97279 4.19005 10.3957L3.39707 11.1887C3.20232 11.3835 3.21003 11.6953 3.40712 11.8924L4.1076 12.5929C4.31312 12.7984 4.61974 12.7945 4.81129 12.6029L5.60426 11.81C6.02721 12.0765 6.49764 12.2745 7 12.3885V13.5095C7 13.7849 7.22596 14 7.50468 14H8.49532C8.78596 14 9 13.7804 9 13.5095V12.3885C9.50235 12.2745 9.97279 12.0765 10.3957 11.81L11.1887 12.6029C11.3835 12.7977 11.6953 12.79 11.8924 12.5929L12.5929 11.8924C12.7984 11.6869 12.7945 11.3803 12.6029 11.1887L11.81 10.3957C12.0765 9.97279 12.2745 9.50235 12.3885 9H13.5095C13.7849 9 14 8.77404 14 8.49532V7.50468C14 7.21404 13.7804 7 13.5095 7H12.3885C12.2745 6.49765 12.0765 6.02721 11.81 5.60426L12.6029 4.81129C12.7977 4.61653 12.79 4.30469 12.5929 4.1076L11.8924 3.40712C11.6869 3.2016 11.3803 3.20553 11.1887 3.39707L10.3957 4.19005C9.97279 3.92353 9.50236 3.7255 9 3.61151V2.49048C9 2.21506 8.77404 2 8.49532 2H7.50468ZM10.5 8C10.5 9.38071 9.38071 10.5 8 10.5C6.61929 10.5 5.5 9.38071 5.5 8C5.5 6.61929 6.61929 5.5 8 5.5C9.38071 5.5 10.5 6.61929 10.5 8Z"/>
</svg>
