<svg width="16" height="16" viewBox="0 0 16 16" xmlns="http://www.w3.org/2000/svg">
<path fill-rule="evenodd" clip-rule="evenodd" d="M15 8C15 11.866 11.866 15 8 15C4.13401 15 1 11.866 1 8C1 4.13401 4.13401 1 8 1C11.866 1 15 4.13401 15 8ZM13.3411 10.7365C12.6001 12.1798 11.2913 13.2836 9.7096 13.7529C10.0965 13.1258 10.4171 12.2917 10.6419 11.3192C11.557 11.1921 12.4567 10.9978 13.3411 10.7365ZM13.8006 9.5399C12.8328 9.87305 11.8452 10.1195 10.8374 10.2792C10.9428 9.56476 11 8.79797 11 8C11 7.58146 10.9843 7.1715 10.9541 6.77317C11.8859 6.62755 12.8018 6.4118 13.7015 6.12594C13.8952 6.71558 14 7.34556 14 8C14 8.53234 13.9307 9.04849 13.8006 9.5399ZM9.80397 10.4119C9.93134 9.66153 10 8.84499 10 8C10 7.62713 9.98663 7.25979 9.96074 6.90124C9.31459 6.96708 8.66099 7 8 7C7.33901 7 6.68541 6.96708 6.03926 6.90124C6.01337 7.2598 6 7.62713 6 8C6 8.84499 6.06867 9.66153 6.19603 10.4119C6.79046 10.4706 7.39176 10.5 8 10.5C8.60824 10.5 9.20954 10.4706 9.80397 10.4119ZM5.16262 10.2792C5.05722 9.56476 5 8.79797 5 8C5 7.58146 5.01574 7.1715 5.04592 6.77317C4.11409 6.62755 3.1982 6.4118 2.29847 6.12594C2.10478 6.71558 2 7.34556 2 8C2 8.53234 2.06933 9.04849 2.19944 9.5399C3.16719 9.87305 4.1548 10.1195 5.16262 10.2792ZM2.65894 10.7365C3.54327 10.9978 4.44304 11.1921 5.35805 11.3192C5.58292 12.2917 5.90353 13.1258 6.2904 13.7529C4.70873 13.2836 3.3999 12.1798 2.65894 10.7365ZM6.4171 11.4359C6.93992 11.4786 7.46757 11.5 8 11.5C8.53243 11.5 9.06008 11.4786 9.5829 11.4359C9.47459 11.842 9.34697 12.218 9.20218 12.5558C8.78341 13.533 8.31017 14 8 14C7.68983 14 7.21659 13.533 6.79782 12.5558C6.65303 12.218 6.52542 11.842 6.4171 11.4359ZM9.7096 2.24707C10.2353 3.09924 10.6386 4.33367 10.8457 5.77791C11.6805 5.64518 12.5014 5.45297 13.3086 5.20125C12.5623 3.78848 11.2684 2.70962 9.7096 2.24707ZM8 6C8.6253 6 9.24327 5.96898 9.85397 5.90694C9.71944 4.97371 9.49622 4.13028 9.20218 3.44417C8.78341 2.46704 8.31017 2 8 2C7.68983 2 7.21659 2.46704 6.79782 3.44417C6.50378 4.13028 6.28056 4.97371 6.14603 5.90694C6.75673 5.96898 7.3747 6 8 6ZM6.2904 2.24707C5.76469 3.09924 5.36135 4.33367 5.15431 5.77791C4.31953 5.64518 3.49862 5.45297 2.69138 5.20125C3.43774 3.78848 4.73156 2.70962 6.2904 2.24707Z"/>
</svg>
