<?xml version="1.0" encoding="UTF-8"?>
<svg fill="#000" width="16px" height="16px" viewBox="0 0 16 16" version="1.1" xmlns="http://www.w3.org/2000/svg" >
    <!-- Generator: (null) (null) ((null)) - http://www.bohemiancoding.com/sketch -->
    <title>mc-hamburger_16</title>
    <desc>Created with (null).</desc>
        <path d="M2.5,3 L13.5,3 C13.7761424,3 14,3.22385763 14,3.5 L14,4.5 C14,4.77614237 13.7761424,5 13.5,5 L2.5,5 C2.22385763,5 2,4.77614237 2,4.5 L2,3.5 C2,3.22385763 2.22385763,3 2.5,3 Z M2.5,7 L13.5,7 C13.7761424,7 14,7.22385763 14,7.5 L14,8.5 C14,8.77614237 13.7761424,9 13.5,9 L2.5,9 C2.22385763,9 2,8.77614237 2,8.5 L2,7.5 C2,7.22385763 2.22385763,7 2.5,7 Z M2.5,11 L13.5,11 C13.7761424,11 14,11.2238576 14,11.5 L14,12.5 C14,12.7761424 13.7761424,13 13.5,13 L2.5,13 C2.22385763,13 2,12.7761424 2,12.5 L2,11.5 C2,11.2238576 2.22385763,11 2.5,11 Z"></path>
</svg>