<svg width="16" height="16" viewBox="0 0 16 16" xmlns="http://www.w3.org/2000/svg">
<path d="M2.5 3H13.5C13.7761 3 14 3.22386 14 3.5V4.5C14 4.77614 13.7761 5 13.5 5H2.5C2.22386 5 2 4.77614 2 4.5V3.5C2 3.22386 2.22386 3 2.5 3Z"/>
<path d="M2.5 7H13.5C13.7761 7 14 7.22386 14 7.5V8.5C14 8.77614 13.7761 9 13.5 9H2.5C2.22386 9 2 8.77614 2 8.5V7.5C2 7.22386 2.22386 7 2.5 7Z"/>
<path d="M13.5 11H2.5C2.22386 11 2 11.2239 2 11.5V12.5C2 12.7761 2.22386 13 2.5 13H13.5C13.7761 13 14 12.7761 14 12.5V11.5C14 11.2239 13.7761 11 13.5 11Z"/>
</svg>
