<?xml version="1.0" encoding="UTF-8"?>
<svg fill="#000" width="16px" height="16px" viewBox="0 0 16 16" version="1.1" xmlns="http://www.w3.org/2000/svg" >
            <path d="M8,1 C11.866,1 15,4.13401 15,8 C15,11.866 11.866,15 8,15 C4.13401,15 1,11.866 1,8 C1,4.13401 4.13401,1 8,1 Z M8,2.5 C4.9624325,2.5 2.5,4.9624325 2.5,8 C2.5,11.0375583 4.9624325,13.5 8,13.5 C11.0375583,13.5 13.5,11.0375583 13.5,8 C13.5,4.9624325 11.0375583,2.5 8,2.5 Z M9,10 L9,12 L7,12 L7,10 L9,10 Z M9.25,4 L9,9 L7,9 L6.75,4 L9.25,4 Z"></path>
</svg>