<?xml version="1.0" encoding="UTF-8"?>
<svg fill="#000" width="16px" height="16px" viewBox="0 0 16 16" version="1.1" xmlns="http://www.w3.org/2000/svg" >
            <path d="M10,5 L3,5 C2.44772,5 2,5.44772 2,6 L2,13 C2,13.5523 2.44772,14 3,14 L10,14 C10.5523,14 11,13.5523 11,13 L11,6 C11,5.44772 10.5523,5 10,5 Z M14,2.9 C14,2.40294 13.5971,2 13.1,2 L5.9,2 C5.40294,2 5,2.40294 5,2.9 L5,3.799 L5.899,3.799 L5.9,2.9 L13.1,2.9 L13.1,10.1 L12.199,10.1 L12.199,11 L13.1,11 C13.5971,11 14,10.5971 14,10.1 L14,2.9 Z M10,6 L3,6 L3,13 L10,13 L10,6 Z"></path>
</svg>