<?xml version="1.0" encoding="UTF-8"?>
<svg fill="#000" width="16px" height="16px" viewBox="0 0 16 16" version="1.1" xmlns="http://www.w3.org/2000/svg" >
    <!-- Generator: (null) (null) ((null)) - http://www.bohemiancoding.com/sketch -->
    <title>mc-pause_16</title>
    <desc>Created with (null).</desc>
        <path d="M5.5,3 L6.5,3 C6.77614237,3 7,3.22385763 7,3.5 L7,12.5 C7,12.7761424 6.77614237,13 6.5,13 L5.5,13 C5.22385763,13 5,12.7761424 5,12.5 L5,3.5 C5,3.22385763 5.22385763,3 5.5,3 Z M9.5,3 L10.5,3 C10.7761424,3 11,3.22385763 11,3.5 L11,12.5 C11,12.7761424 10.7761424,13 10.5,13 L9.5,13 C9.22385763,13 9,12.7761424 9,12.5 L9,3.5 C9,3.22385763 9.22385763,3 9.5,3 Z"></path>
</svg>