<svg width="16" height="16" viewBox="0 0 16 16" xmlns="http://www.w3.org/2000/svg">
<path fill-rule="evenodd" clip-rule="evenodd" d="M3 3.41295C3 2.95048 3 2.71924 3.09698 2.58717C3.18154 2.472 3.31133 2.39851 3.45359 2.38525C3.61674 2.37005 3.81503 2.48902 4.2116 2.72696L11.8567 7.31401C12.2338 7.54027 12.4223 7.65341 12.4863 7.79971C12.5421 7.9274 12.5421 8.0726 12.4863 8.20029C12.4223 8.34659 12.2338 8.45973 11.8567 8.68599L4.2116 13.273C3.81503 13.511 3.61674 13.63 3.45359 13.6147C3.31133 13.6015 3.18154 13.528 3.09698 13.4128C3 13.2808 3 13.0495 3 12.587V3.41295Z"/>
</svg>
