<svg width="24" height="24" viewBox="0 0 24 24" xmlns="http://www.w3.org/2000/svg">
<path d="M12 3C16.9632 3 21 7.03676 21 12C21 16.9632 16.9632 21 12 21C7.03676 21 3 16.9632 3 12C3 7.03676 7.03676 3 12 3ZM23 12C23 5.92708 18.0729 1 12 1C5.92708 1 1 5.92708 1 12C1 18.0729 5.92708 23 12 23C18.0729 23 23 18.0729 23 12Z"/>
<path fill-rule="evenodd" clip-rule="evenodd" d="M11.2167 16.7391C11.0167 16.5651 10.9167 16.3221 10.9167 16.0091C10.9167 15.7321 11.0137 15.4991 11.2077 15.3091C11.4007 15.1191 11.6387 15.0251 11.9207 15.0251C12.1977 15.0251 12.4307 15.1191 12.6207 15.3091C12.8107 15.4991 12.9047 15.7321 12.9047 16.0091C12.9047 16.3181 12.8057 16.5591 12.6077 16.7361C12.4097 16.9121 12.1797 17.0001 11.9207 17.0001C11.6517 17.0001 11.4177 16.9131 11.2167 16.7391Z"/>
<path fill-rule="evenodd" clip-rule="evenodd" d="M9.10069 8.49012C9.36969 8.06012 9.76069 7.70512 10.2757 7.42312C10.7917 7.14112 11.3927 7.00012 12.0797 7.00012C12.7177 7.00012 13.2817 7.11812 13.7697 7.35412C14.2587 7.58912 14.6367 7.91012 14.9027 8.31412C15.1697 8.71912 15.3027 9.16012 15.3027 9.63512C15.3027 10.0101 15.2267 10.3371 15.0737 10.6201C14.9227 10.9021 14.7417 11.1451 14.5327 11.3491C14.3237 11.5551 13.9487 11.8991 13.4067 12.3831C13.2567 12.5201 13.1367 12.6401 13.0477 12.7441C12.9567 12.8461 12.8897 12.9421 12.8457 13.0271C12.8007 13.1131 12.7667 13.1981 12.7437 13.2851C12.7187 13.3701 12.6817 13.5211 12.6337 13.7371C12.5497 14.1951 12.2887 14.4241 11.8477 14.4241C11.6187 14.4241 11.4267 14.3501 11.2697 14.1991C11.1137 14.0491 11.0357 13.8281 11.0357 13.5321C11.0357 13.1621 11.0927 12.8421 11.2077 12.5721C11.3217 12.3001 11.4737 12.0621 11.6627 11.8581C11.8527 11.6531 12.1077 11.4101 12.4297 11.1281C12.7117 10.8821 12.9157 10.6961 13.0397 10.5701C13.1667 10.4451 13.2717 10.3041 13.3567 10.1511C13.4437 9.99712 13.4857 9.82912 13.4857 9.64912C13.4857 9.29712 13.3547 8.99912 13.0927 8.75712C12.8317 8.51412 12.4937 8.39412 12.0797 8.39412C11.5947 8.39412 11.2387 8.51612 11.0097 8.76012C10.7797 9.00512 10.5867 9.36512 10.4277 9.84012C10.2777 10.3371 9.99369 10.5871 9.57569 10.5871C9.32969 10.5871 9.12069 10.5001 8.95269 10.3261C8.78269 10.1521 8.69769 9.96412 8.69769 9.76112C8.69769 9.34312 8.83169 8.91812 9.10069 8.49012Z"/>
</svg>
