<?xml version="1.0" encoding="UTF-8"?>
<svg fill="#000" width="16px" height="16px" viewBox="0 0 16 16" version="1.1" xmlns="http://www.w3.org/2000/svg" >
    <!-- Generator: sketchtool 53.2 (72643) - https://sketchapp.com -->
    <title>mc-search_16</title>
    <desc>Created with sketchtool.</desc>
        <path d="M10.9898286,9.60364378 L14,12.6138152 L12.6138152,14 L9.60364378,10.9898286 C8.82887661,11.5029726 7.89978828,11.8018069 6.90090345,11.8018069 C4.19420922,11.8018069 2,9.60759769 2,6.90090345 C2,4.19420922 4.19420922,2 6.90090345,2 C9.60759769,2 11.8018069,4.19420922 11.8018069,6.90090345 C11.8018069,7.89978828 11.5029726,8.82887661 10.9898286,9.60364378 Z M9.53944121,9.09360985 C10.0340579,8.49908027 10.3315359,7.73473171 10.3315359,6.90090345 C10.3315359,5.00621749 8.79558942,3.47027104 6.90090345,3.47027104 C5.00621749,3.47027104 3.47027104,5.00621749 3.47027104,6.90090345 C3.47027104,8.79558942 5.00621749,10.3315359 6.90090345,10.3315359 C7.73473171,10.3315359 8.49908027,10.0340579 9.09360985,9.53944121 L9.53944121,9.09360985 Z"></path>
</svg>