<svg width="16" height="16" viewBox="0 0 16 16" xmlns="http://www.w3.org/2000/svg">
<path fill-rule="evenodd" clip-rule="evenodd" d="M6.9009 11.8018C4.19421 11.8018 2 9.6076 2 6.9009C2 4.19421 4.19421 2 6.9009 2C9.6076 2 11.8018 4.19421 11.8018 6.9009C11.8018 7.89979 11.503 8.82888 10.9898 9.60364L14 12.6138L12.6138 14L9.60364 10.9898C8.82888 11.503 7.89979 11.8018 6.9009 11.8018ZM9.53944 9.09361L9.09361 9.53944C8.49908 10.0341 7.73473 10.3315 6.9009 10.3315C5.00622 10.3315 3.47027 8.79559 3.47027 6.9009C3.47027 5.00622 5.00622 3.47027 6.9009 3.47027C8.79559 3.47027 10.3315 5.00622 10.3315 6.9009C10.3315 7.73473 10.0341 8.49908 9.53944 9.09361Z"/>
</svg>
