<?xml version="1.0" encoding="UTF-8"?>
<svg fill="#000" width="16px" height="16px" viewBox="0 0 16 16" version="1.1" xmlns="http://www.w3.org/2000/svg" >
            <path d="M7,2 C9.76142375,2 12,4.23857625 12,7 C12,8.02606952 11.6909282,8.97995147 11.1608043,9.77362614 L14.3765669,12.9903821 L12.9903821,14.3765669 L9.77362614,11.1608043 C8.97995147,11.6909282 8.02606952,12 7,12 C4.23857625,12 2,9.76142375 2,7 C2,4.23857625 4.23857625,2 7,2 Z M7,3.5 C5.06700338,3.5 3.5,5.06700338 3.5,7 C3.5,8.93299662 5.06700338,10.5 7,10.5 C8.93299662,10.5 10.5,8.93299662 10.5,7 C10.5,5.06700338 8.93299662,3.5 7,3.5 Z"></path>
</svg>