<?xml version="1.0" encoding="UTF-8"?>
<svg fill="#000" width="64px" height="64px" viewBox="0 0 64 64" version="1.1" xmlns="http://www.w3.org/2000/svg" >
    <!-- Generator: sketchtool 53.2 (72643) - https://sketchapp.com -->
    <title>mc-upload-to-cloud_64</title>
    <desc>Created with sketchtool.</desc>
        <path d="M10.1928225,46.096854 C9.67754239,46.0176456 9.46587672,45.9851085 9.58701204,45.9827213 C9.71238853,45.9834414 9.89855167,45.9841606 10.1423355,45.9848709 C10.6074574,45.9862261 11.2783226,45.9875394 12.1373092,45.9888083 C13.6509034,45.9910443 15.7123543,45.9930959 18.1846621,45.9949591 C20.1132411,45.9964125 22.1796335,45.9976691 24.2460339,45.9987254 C25.4170067,45.9993073 25.4170067,45.9993073 26.2435633,45.9996797 C26.8634659,45.9999465 26.8634659,45.9999465 27.0011699,46.0000002 L27,49 C27,49 9.40944872,48.9931404 9.36488732,48.9803455 C4.13795572,48.6558534 0,44.3539392 0,39.0947068 C0,34.5764815 3.05405519,30.7648134 7.22890179,29.5746571 L9.29397116,29.213719 C9.29397116,29.213719 9.03192542,26.2247592 9.00432728,26.2268399 C9.00144713,26.0884329 9,25.9496771 9,25.8105865 C9,14.8695017 17.954305,6 29,6 C36.9816592,6 43.8712866,10.6312635 47.0794233,17.3288555 C47.3840801,17.3117371 47.6910172,17.3030617 48,17.3030617 C56.836556,17.3030617 64,24.398663 64,33.1515308 C64,41.703283 57.1619646,48.6730521 48.5017326,49 L36,49 L36,46 L48.4423336,46 C55.4840067,45.7065678 61,40.0540419 61,33.1515308 C61,26.0619412 55.1860585,20.3030617 48,20.3030617 C47.7481648,20.3030617 47.4973493,20.3101047 47.2477251,20.3241309 L45.2417429,20.4368452 L44.3737979,18.624846 C41.5826177,12.7977294 35.6412023,9 29,9 C19.6048025,9 12,16.5327799 12,25.8105865 C12,26.7868694 12.0838356,27.7512487 12.2491716,28.6972016 L12.822439,31.9770909 L9.50074637,32.2065845 C5.84629066,32.4590686 3,35.46966 3,39.0947068 C3,42.6902213 5.79917401,45.6785108 9.55077185,45.9861099 L9.87784573,46.0064149 L10.1928225,46.096854 Z M31.5010473,27.72791 C31.9726706,27.6342586 32.4796454,27.7694578 32.8464934,28.1363058 L41.341538,36.6313504 C41.9246284,37.2144408 41.9265268,38.1579187 41.3366563,38.7477892 C40.7508699,39.3335756 39.806558,39.3390111 39.2202176,38.7526708 L33,32.5324532 L33,57.3270712 C33,58.1528443 32.3342028,58.8222656 31.5,58.8222656 C30.6715729,58.8222656 30,58.1459567 30,57.3270712 L30,32.5324532 L23.7797824,38.7526708 C23.196692,39.3357612 22.2532141,39.3376596 21.6633437,38.7477892 C21.0775572,38.1620027 21.0721217,37.2176908 21.658462,36.6313504 L30.1535066,28.1363058 C30.5195437,27.7702687 31.0276004,27.6332646 31.5010473,27.72791 Z"></path>
</svg>