<svg width="24" height="24" viewBox="0 0 24 24" xmlns="http://www.w3.org/2000/svg">
<path fill-rule="evenodd" clip-rule="evenodd" d="M10.0375 19V17H4.4163L4.33409 16.9786C4.33409 16.9786 3.98364 17 3.96796 17.0003C2.81058 16.9849 2 16.2058 2 15.2208C2 14.3381 2.65841 13.5957 3.52346 13.4851L5.812 13.1927L5.19779 10.9688C5.06705 10.4954 5 10.0032 5 9.5C5 6.46243 7.46243 4 10.5 4C12.854 4 14.9243 5.49254 15.6913 7.67716L16.1963 9.11534L17.7169 9.00978C17.8106 9.00327 17.905 9 18 9C20.2091 9 22 10.7909 22 13C22 15.2091 20.2091 17 18 17C17.9651 17 17.9303 16.9996 17.8956 16.9987L17.5423 17.0211C17.6106 17.0124 17.645 17.008 17.6794 17.0053C17.7141 17.0027 17.749 17.0018 17.819 17H14V19C14 19 17.8365 18.9993 17.8449 18.998C17.8964 18.9993 17.9481 19 18 19C21.3137 19 24 16.3137 24 13C24 9.68629 21.3137 7 18 7C17.8583 7 17.7177 7.00491 17.5784 7.01458C16.5529 4.09399 13.771 2 10.5 2C6.35786 2 3 5.35786 3.01647 9.51739L3.26996 11.5013L2.24933 11.7831C0.925261 12.362 0 13.6833 0 15.2208C0 17.2919 1.67893 18.9708 4 19C4.00795 18.9999 4.01589 18.9997 4.02404 18.9996C4.06361 18.9988 4.10808 18.9979 4.18156 19H10.0375ZM8.41421 15.0711C8.80746 15.4643 9.43523 15.4643 9.82247 15.077L11 13.8995V21.9975C11 22.5442 11.4464 23 12.0029 23C12.5468 23 13 22.5512 13 21.9975V13.7574L14.3197 15.077C14.707 15.4643 15.3374 15.4616 15.7279 15.0711C16.1212 14.6778 16.1211 14.05 15.7339 13.6628L12.7722 10.7011C12.5795 10.5085 12.3267 10.4123 12.0679 10.4114C11.8147 10.4117 11.5626 10.5085 11.3699 10.7011L8.40825 13.6628C8.02095 14.0501 8.02369 14.6805 8.41421 15.0711Z"/>
</svg>
