<?xml version="1.0" encoding="UTF-8"?>
<svg fill="#000" width="64px" height="64px" viewBox="0 0 64 64" version="1.1" xmlns="http://www.w3.org/2000/svg" >
            <path d="M32.8464934,28.1363058 L41.341538,36.6313504 C41.9246284,37.2144408 41.9265268,38.1579187 41.3366563,38.7477892 C40.7508699,39.3335756 39.806558,39.3390111 39.2202176,38.7526708 L33,32.5324532 L33,57.3270712 C33,58.1528443 32.3342028,58.8222656 31.5,58.8222656 C30.6715729,58.8222656 30,58.1459567 30,57.3270712 L30,32.5324532 L23.7797824,38.7526708 C23.196692,39.3357612 22.2532141,39.3376596 21.6633437,38.7477892 C21.0775572,38.1620027 21.0721217,37.2176908 21.658462,36.6313504 L30.1535066,28.1363058 C30.5195437,27.7702687 31.0276004,27.6332646 31.5010473,27.72791 C31.9726706,27.6342586 32.4796454,27.7694578 32.8464934,28.1363058 Z M29,6 C36.9816592,6 43.8712866,10.6312635 47.0794233,17.3288555 C47.3840801,17.3117371 47.6910172,17.3030617 48,17.3030617 C56.836556,17.3030617 64,24.398663 64,33.1515308 C64,41.703283 57.1619646,48.6730521 48.5017326,49 L48.5017326,49 L36,49 L36,46 L48.4423336,46 C55.4840067,45.7065678 61,40.0540419 61,33.1515308 C61,26.0619412 55.1860585,20.3030617 48,20.3030617 C47.7481648,20.3030617 47.4973493,20.3101047 47.2477251,20.3241309 L47.2477251,20.3241309 L45.2417429,20.4368452 L44.3737979,18.624846 C41.5826177,12.7977294 35.6412023,9 29,9 C19.6048025,9 12,16.5327799 12,25.8105865 C12,26.7868694 12.0838356,27.7512487 12.2491716,28.6972016 L12.2491716,28.6972016 L12.822439,31.9770909 L9.50074637,32.2065845 C5.84629066,32.4590686 3,35.46966 3,39.0947068 C3,42.6902213 5.79917401,45.6785108 9.55077185,45.9861099 L9.55077185,45.9861099 L9.554,45.986 L9.56364467,45.9839558 L9.58701204,45.9827213 C9.66223793,45.9831534 9.75934702,45.9835851 9.87765546,45.9840148 L10.1423355,45.9848709 C10.4007366,45.9856238 10.7226387,45.9863637 11.1050201,45.9870903 L11.5927147,45.9879558 C11.7648273,45.9882422 11.9464233,45.9885263 12.1373092,45.9888083 C12.440028,45.9892555 12.7646611,45.9896953 13.1101125,45.9901277 L13.8284482,45.9909827 C14.4496515,45.9916869 15.1266537,45.9923704 15.8543807,45.9930332 L16.7516762,45.9938186 C16.9051752,45.9939478 17.0606221,45.9940762 17.2179761,45.9942037 L18.1846621,45.9949591 C20.1132411,45.9964125 22.1796335,45.9976691 24.2460339,45.9987254 L24.656706,45.9989294 C24.716321,45.998959 24.7719154,45.9989866 24.8240811,45.9990124 L26.9691743,45.9999877 L26.9691743,45.9999877 L27.0011699,46.0000002 L27,49 C27,49 26.9960814,48.9999985 26.9883611,48.9999954 L25.0164359,48.9991099 C24.929613,48.9990677 24.8405071,48.9990241 24.7492349,48.9989789 L22.8976186,48.9980068 C22.7845575,48.997944 22.6700311,48.9978797 22.5541563,48.9978139 L21.4780291,48.9971828 C21.355115,48.9971084 21.2312029,48.9970324 21.1064097,48.996955 L19.9626341,48.9962196 C19.8336054,48.9961335 19.7040461,48.996046 19.5740729,48.9959571 L18.3962944,48.9951181 C18.2648896,48.9950206 18.1334213,48.9949217 18.0020065,48.9948213 L17.2150937,48.9942021 C17.08436,48.9940961 16.9539134,48.9939886 16.8238707,48.9938798 L16.0493962,48.9932096 C15.9214365,48.9930951 15.7941144,48.9929792 15.6675467,48.9928618 L14.9181277,48.992141 C14.5488792,48.9917722 14.1885231,48.9913908 13.8402137,48.9909969 L13.1605917,48.9901924 C12.8297464,48.9897818 12.5130506,48.9893588 12.2136587,48.9889234 L11.6388811,48.9880362 C10.2642894,48.985777 9.37486376,48.98321 9.36488732,48.9803455 C4.13795572,48.6558534 0,44.3539392 0,39.0947068 C0,34.5764815 3.05405519,30.7648134 7.22890179,29.5746571 L7.22890179,29.5746571 L9.29397116,29.213719 C9.29397116,29.213719 9.2444351,28.6486982 9.18616954,28.0101501 L9.13247535,27.4288748 C9.09657695,27.0458167 9.06194303,26.6893701 9.03738782,26.4656975 L9.01651862,26.2902148 C9.01089972,26.2490946 9.00672712,26.226659 9.00432728,26.2268399 C9.00144713,26.0884329 9,25.9496771 9,25.8105865 C9,14.8695017 17.954305,6 29,6 Z"></path>
</svg>