<svg width="16" height="16" viewBox="0 0 16 16" xmlns="http://www.w3.org/2000/svg">
<path fill-rule="evenodd" clip-rule="evenodd" d="M10.6345 6.40642C10.3692 6.66858 9.94556 6.66855 9.68427 6.41039L8.83333 5.69237L8.85047 10.6333C8.85047 10.9978 8.56542 11.3017 8.18996 11.3017C7.82293 11.3017 7.51714 11.0024 7.51714 10.6333L7.5 5.69237L6.64973 6.41039C6.3884 6.66859 5.96301 6.66677 5.6995 6.40642C5.43415 6.14426 5.43419 5.72574 5.69548 5.46758L7.6939 3.49314C7.8239 3.36469 7.9945 3.3006 8.16911 3.3C8.33997 3.30017 8.51012 3.36471 8.64011 3.49314L10.6385 5.46758C10.8999 5.72579 10.898 6.14607 10.6345 6.40642ZM2.75 12.4667C2.61193 12.4667 2.5 12.5786 2.5 12.7167V13.7167C2.5 13.8547 2.61193 13.9667 2.75 13.9667H13.75C13.8881 13.9667 14 13.8547 14 13.7167V12.7167C14 12.5786 13.8881 12.4667 13.75 12.4667H2.75Z"/>
</svg>
