<?xml version="1.0" encoding="UTF-8"?>
<svg fill="#000" width="32px" height="32px" viewBox="0 0 32 32" version="1.1" xmlns="http://www.w3.org/2000/svg" >
                    <path d="M16.4232467,13.276986 L20.670769,17.6046502 C20.9623142,17.9016963 20.9632634,18.3823359 20.6683282,18.682836 C20.375435,18.9812555 19.903279,18.9840245 19.6101088,18.6853229 L16.5,15.5165328 L16.5,28.1477533 C16.5,28.5684301 16.1671014,28.9094561 15.75,28.9094561 C15.3357865,28.9094561 15,28.5649213 15,28.1477533 L15,15.5165328 L11.8898912,18.6853229 C11.598346,18.9823689 11.1266071,18.983336 10.8316719,18.682836 C10.5387786,18.3844165 10.5360609,17.9033519 10.829231,17.6046502 L15.0767533,13.276986 C15.2597719,13.0905142 15.5138002,13.0207197 15.7505237,13.0689353 C15.9863353,13.0212261 16.2398227,13.0901011 16.4232467,13.276986 Z M14.5,2 C18.4908296,2 21.9356433,4.35932292 23.5397117,7.77130375 C23.69204,7.76258305 23.8455086,7.75816351 24,7.75816351 C28.418278,7.75816351 32,11.5409919 32,16 C32,20.356553 28.330116,23.8334416 24,24 L19,24 L19,22 L23.9231266,22.0014779 C27.2729239,21.8726276 30,19.1906517 30,16 C30,12.5970533 27.2656841,9.75816351 24,9.75816351 C23.922763,9.75816351 23.3576796,9.78720208 22.30475,9.84527923 L21.7297536,8.62221605 C20.4123872,5.82007303 17.6176766,4 14.5,4 C10.0858511,4 6.5,7.61890747 6.5,12.0921856 L6.50192293,12.103063 C6.5166654,12.2313112 6.61617709,13.3549005 6.80045798,15.4738308 L4.08530173,15.9573468 C2.89897519,16.3489978 2,17.6183918 2,19 C2,20.5606015 2.93739273,21.8671502 4.5,22 C4.79887439,22 12.7601513,21.9973604 13,22 L13,24 L11.6750082,24.0009166 C9.28960526,24.0024443 4.51671053,24.0048886 4.5,24 C1.8865342,23.8346927 0,21.6792316 0,19 C0,16.6982626 1.5270276,14.616037 3.6144509,14.009731 L4.64698558,13.8258568 C4.64698558,13.8258568 4.5,12.1630431 4.5,12.0921856 C4.5,6.51842538 8.9771525,2 14.5,2 Z"></path>
</svg>