<svg width="64" height="64" viewBox="0 0 64 64" xmlns="http://www.w3.org/2000/svg">
<path fill-rule="evenodd" clip-rule="evenodd" d="M9.87785 46.0064L10.1927 46.0968C9.76094 46.0305 9.54239 45.9969 9.55422 45.9863L9.87785 46.0064ZM9.55077 45.9861L9.55422 45.9863C9.55651 45.9843 9.5674 45.9831 9.58701 45.9827C9.71239 45.9834 9.89855 45.9842 10.1423 45.9849C10.6075 45.9862 11.2783 45.9875 12.1373 45.9888C13.6509 45.991 15.7124 45.9931 18.1847 45.995C20.1132 45.9964 22.1796 45.9977 24.246 45.9987L26.2436 45.9997L27.0012 46L27 49C27 49 9.40945 48.9931 9.36489 48.9803C4.13796 48.6559 0 44.3539 0 39.0947C0 34.5765 3.05406 30.7648 7.2289 29.5747L9.29397 29.2137C9.29397 29.2137 9.03193 26.2248 9.00433 26.2268C9.00145 26.0884 9 25.9497 9 25.8106C9 14.8695 17.9543 6 29 6C36.9817 6 43.8713 10.6313 47.0794 17.3289C47.3841 17.3117 47.691 17.3031 48 17.3031C56.8366 17.3031 64 24.3987 64 33.1515C64 41.7033 57.162 48.6731 48.5017 49H36V46H48.4423C55.484 45.7066 61 40.054 61 33.1515C61 26.0619 55.1861 20.3031 48 20.3031C47.7482 20.3031 47.4973 20.3101 47.2477 20.3241L45.2417 20.4368L44.3738 18.6248C41.5826 12.7977 35.6412 9 29 9C19.6048 9 12 16.5328 12 25.8106C12 26.7869 12.0838 27.7512 12.2492 28.6972L12.8224 31.9771L9.50075 32.2066C5.84629 32.4591 3 35.4697 3 39.0947C3 42.6902 5.79917 45.6785 9.55077 45.9861ZM32.8465 28.1363C32.4796 27.7695 31.9727 27.6343 31.501 27.7279C31.0276 27.6333 30.5195 27.7703 30.1535 28.1363L21.6585 36.6313C21.0721 37.2177 21.0776 38.162 21.6633 38.7478C22.2532 39.3377 23.1967 39.3358 23.7798 38.7527L30 32.5325V57.3271C30 58.146 30.6716 58.8223 31.5 58.8223C32.3342 58.8223 33 58.1528 33 57.3271V32.5325L39.2202 38.7527C39.8066 39.339 40.7509 39.3336 41.3367 38.7478C41.9265 38.1579 41.9246 37.2144 41.3415 36.6313L32.8465 28.1363Z"/>
</svg>
