<svg width="32" height="32" viewBox="0 0 32 32" xmlns="http://www.w3.org/2000/svg">
<path fill-rule="evenodd" clip-rule="evenodd" d="M30 16C30 19.1907 27.2729 21.8726 23.9231 22.0015L19 22V24H24C28.3301 23.8334 32 20.3566 32 16C32 11.541 28.4183 7.75816 24 7.75816C23.8455 7.75816 23.692 7.76258 23.5397 7.7713C21.9356 4.35932 18.4908 2 14.5 2C8.97715 2 4.5 6.51843 4.5 12.0922C4.5 12.163 4.64699 13.8259 4.64699 13.8259L3.61445 14.0097C1.52703 14.616 0 16.6983 0 19C0 21.6792 1.88653 23.8347 4.5 24C4.52228 24.0065 13 24 13 24V22C12.7956 21.9978 6.98468 21.9993 5.08555 21.9999C4.75597 21.9999 4.5442 22 4.5 22C2.93739 21.8671 2 20.5606 2 19C2 17.6184 2.89898 16.349 4.0853 15.9573L6.80046 15.4738C6.60015 13.1706 6.5 12.0434 6.5 12.0922C6.5 7.61891 10.0859 4 14.5 4C17.6177 4 20.4124 5.82007 21.7298 8.62222L22.3048 9.84528C23.3577 9.7872 23.9228 9.75816 24 9.75816C27.2657 9.75816 30 12.5971 30 16ZM16.4232 13.277C16.2398 13.0901 15.9863 13.0212 15.7505 13.0689C15.5138 13.0207 15.2598 13.0905 15.0768 13.277L10.8292 17.6047C10.5361 17.9034 10.5388 18.3844 10.8317 18.6828C11.1266 18.9833 11.5983 18.9824 11.8899 18.6853L15 15.5165V28.1478C15 28.5649 15.3358 28.9095 15.75 28.9095C16.1671 28.9095 16.5 28.5684 16.5 28.1478V15.5165L19.6101 18.6853C19.9033 18.984 20.3754 18.9813 20.6683 18.6828C20.9633 18.3823 20.9623 17.9017 20.6708 17.6047L16.4232 13.277Z"/>
</svg>
