<?xml version="1.0" encoding="UTF-8"?>
<svg fill="#000" width="16px" height="16px" viewBox="0 0 16 16" version="1.1" xmlns="http://www.w3.org/2000/svg" >
                    <path d="M13.75,12.466653 C13.8880712,12.466653 14,12.5785818 14,12.716653 L14,13.7166666 C14,13.8547378 13.8880712,13.9666666 13.75,13.9666666 L2.75,13.9666666 C2.61192881,13.9666666 2.5,13.8547378 2.5,13.7166666 L2.5,12.716653 C2.5,12.5785818 2.61192881,12.466653 2.75,12.466653 L13.75,12.466653 Z M8.16911474,3.29999995 C8.3399695,3.30016411 8.51012164,3.36471004 8.64010587,3.49313523 L8.64010587,3.49313523 L10.6385214,5.46758147 C10.8998563,5.72578181 10.8980093,6.14606702 10.6344992,6.40641654 C10.369152,6.66858118 9.94555561,6.66854528 9.6842669,6.41039051 L9.6842669,6.41039051 L8.83333333,5.69237134 L8.85046982,10.6333333 C8.85046982,10.9978082 8.56542252,11.3016488 8.18996068,11.3016488 C7.82292822,11.3016488 7.51713648,11.0024338 7.51713648,10.6333333 L7.51713648,10.6333333 L7.5,5.69237134 L6.64973473,6.41039051 C6.38839989,6.66859086 5.96301253,6.66676607 5.69950242,6.40641654 C5.43415516,6.14425191 5.4341915,5.72573623 5.69548021,5.46758147 L5.69548021,5.46758147 L7.69389576,3.49313523 C7.82389988,3.3646904 7.9945018,3.30059355 8.16911474,3.29999995 Z"></path>
</svg>