<?xml version="1.0" encoding="UTF-8"?>
<svg fill="#000" width="24px" height="24px" viewBox="0 0 24 24" version="1.1" xmlns="http://www.w3.org/2000/svg" >
    <!-- Generator: (null) (null) ((null)) - http://www.bohemiancoding.com/sketch -->
    <title>mc-upload-to-cloud_24</title>
    <desc>Created with (null).</desc>
        <path d="M10.0374756,17 L10.0374756,19 L4.18156192,19 C4.09294942,18.9974328 4.04652109,18.9992547 4,19 C1.67893219,18.9708252 0,17.291893 0,15.2208252 C0,13.683344 0.925260797,12.361969 2.24933327,11.7831493 L3.26996493,11.5012625 L3.01647103,9.51739232 C3,5.35786438 6.35786438,2 10.5,2 C13.7709943,2 16.5529116,4.09398753 17.5783735,7.01458419 C17.7176602,7.00491511 17.8582561,7 18,7 C21.3137085,7 24,9.6862915 24,13 C24,16.3137085 21.3137085,19 18,19 C17.9481471,19 17.8964479,18.9993422 17.8449102,18.9980346 C17.8364557,18.9993289 14,19 14,19 L14,17 L17.8190232,17 C17.6795569,17.0035651 17.6795569,17.0035651 17.5422563,17.0210671 L17.8956388,16.998678 C17.9303478,16.9995587 17.9651362,17 18,17 C20.209139,17 22,15.209139 22,13 C22,10.790861 20.209139,9 18,9 C17.9050362,9 17.8106351,9.00327407 17.7168772,9.00978261 L16.196279,9.11534025 L15.6913131,7.67715721 C14.9242638,5.49254018 12.8539632,4 10.5,4 C7.46243388,4 5,6.46243388 5,9.5 C5,10.0031599 5.06704862,10.4954471 5.19778869,10.9688195 L5.81200152,13.1927085 L3.52345883,13.4851327 C2.65841202,13.5956661 2,14.338135 2,15.2208252 C2,16.2058302 2.81058078,16.9848915 3.96796269,17.0002566 C3.98363528,17.0000055 4.33409044,16.9785914 4.33409044,16.9785914 L4.41630301,17 L10.0374756,17 Z M9.82246618,15.0770288 C9.43523403,15.4642609 8.80746052,15.4643148 8.41421356,15.0710678 C8.02368927,14.6805435 8.0209521,14.0501157 8.40825262,13.6628152 L11.369922,10.7011458 C11.5625598,10.5085081 11.8147267,10.4116892 12.067935,10.4114429 C12.3267129,10.4123333 12.5795464,10.5084786 12.7722136,10.7011458 L15.733883,13.6628152 C16.1211152,14.0500473 16.121169,14.6778209 15.7279221,15.0710678 C15.3373978,15.4615921 14.70697,15.4643293 14.3196694,15.0770288 L13,13.7573593 L13,21.9975267 C13,22.5511774 12.546814,23 12.0028687,23 C11.4464309,23 11,22.544239 11,21.9975267 L11,13.8994949 L9.82246618,15.0770288 Z"></path>
</svg>