<svg width="24" height="24" viewBox="0 0 24 24" xmlns="http://www.w3.org/2000/svg">
<path fill-rule="evenodd" clip-rule="evenodd" d="M20.5796 19.6279L19.8296 12.6279C19.6419 11.1266 18.2872 9.75 16.7743 9.75H16.6903C15.734 11.122 14.1466 12 12.3812 12H11.464C9.69859 12 8.11119 11.122 7.15493 9.75H7.07095C5.55798 9.75 4.36024 11.1266 4.17258 12.6279L3.42258 19.6279C3.20183 21.3939 4.62905 23 6.39941 23H17.4226C19.3484 23 20.7949 21.3507 20.5796 19.6279ZM6.15882 12.8631L5.40932 19.8585L5.40714 19.876C5.33613 20.444 5.82777 21 6.39941 21H17.4226C18.2217 21 18.6518 20.3306 18.595 19.876L18.5928 19.8585L17.8433 12.8632C17.8077 12.6048 17.6751 12.3806 17.4852 12.2254C16.174 13.4859 14.3163 14 12.3812 14H11.464C9.52889 14 7.82812 13.4858 6.51691 12.2254C6.32703 12.3806 6.19447 12.6048 6.15882 12.8631ZM12.8857 3.00001C12.1425 3.00454 11.5782 3.01015 11.1888 3.01674C10.9923 3.02007 10.8486 3.02352 10.7521 3.02687C10.7442 3.02714 10.737 3.02741 10.7302 3.02766C10.224 3.14882 9.8907 3.64308 9.97759 4.1644L10.4776 7.1644C10.558 7.64659 10.9751 8 11.464 8H12.3812C12.8691 8 13.2856 7.64802 13.3671 7.16732C13.5468 6.06188 13.6807 5.2237 13.7696 4.64992C13.8142 4.36165 13.8464 4.14655 13.8671 4.0002C13.8715 3.96931 13.8751 3.94299 13.8781 3.92085C13.8379 3.40703 13.4093 3.0023 12.8857 3.00001ZM13.8902 3.82325C13.8902 3.82325 13.8898 3.82892 13.8881 3.8434C13.8892 3.83101 13.8902 3.82325 13.8902 3.82325ZM15.3404 7.4932C15.7009 5.27456 15.8812 4.11016 15.8812 4C15.8812 2.34315 14.5381 1 12.8812 1C11.3829 1.0091 10.5794 1.02271 10.4708 1.04082C8.83647 1.3132 7.73242 2.85889 8.0048 4.4932L8.5048 7.4932C8.74589 8.93976 9.99747 10 11.464 10H12.3812C13.8477 10 15.0993 8.93976 15.3404 7.4932Z"/>
</svg>
