<svg width="16" height="16" viewBox="0 0 16 16" xmlns="http://www.w3.org/2000/svg">
<path fill-rule="evenodd" clip-rule="evenodd" d="M7.69425 8.5H8.30574C9.48267 8.5 10.5409 7.91469 11.1784 7H11.2344C12.2431 7 13.0939 7.75107 13.219 8.75193L13.719 12.7519C13.7293 12.8342 13.7344 12.9171 13.7344 13C13.7344 14.1046 12.839 15 11.7344 15H4.26556C4.18263 15 4.09978 14.9948 4.01749 14.9846C2.92145 14.8476 2.144 13.848 2.28101 12.7519L2.78101 8.75193C2.90611 7.75107 3.75691 7 4.76556 7H4.82155C5.45906 7.91469 6.51732 8.5 7.69425 8.5ZM8.63908 1C9.74365 1 10.6391 1.89543 10.6391 3C10.6391 3.07344 10.5189 3.84971 10.2785 5.3288C10.1178 6.29317 9.28342 7 8.30574 7H7.69425C6.71657 7 5.88219 6.29317 5.72146 5.3288L5.38813 3.3288C5.20654 2.23926 5.94258 1.2088 7.03212 1.02721C7.10456 1.01514 7.64021 1.00607 8.63908 1Z"/>
</svg>
